<?xml version="1.0" standalone="no"?>
<!DOCTYPE svg PUBLIC "-//W3C//DTD SVG 1.1//EN" "http://www.w3.org/Graphics/SVG/1.1/DTD/svg11.dtd" >
<svg xmlns="http://www.w3.org/2000/svg" xmlns:xlink="http://www.w3.org/1999/xlink" version="1.1">
<metadata>
Created by FontForge 20190801 at Tue Oct  6 15:01:03 1992
 By www-data
Another friendly font from Allen R. Walden. UNPROTECTED - Please distribute freely.
</metadata>
<defs>
<font id="NewYorker" horiz-adv-x="346" >
  <font-face 
    font-family="NewYorker"
    font-weight="500"
    font-stretch="normal"
    units-per-em="1000"
    panose-1="0 0 0 0 0 0 0 0 0 0"
    ascent="800"
    descent="-200"
    x-height="463"
    cap-height="715"
    bbox="-11 -196 1042 896"
    underline-thickness="50"
    underline-position="-125"
    unicode-range="U+0020-F002"
  />
<missing-glyph horiz-adv-x="800" 
d="M50 0v800h700v-800h-700zM700 50v700h-600v-700h600z" />
    <glyph glyph-name=".notdef" horiz-adv-x="800" 
d="M50 0v800h700v-800h-700zM700 50v700h-600v-700h600z" />
    <glyph glyph-name=".null" horiz-adv-x="0" 
 />
    <glyph glyph-name="nonmarkingreturn" horiz-adv-x="316" 
 />
    <glyph glyph-name="space" unicode=" " horiz-adv-x="316" 
 />
    <glyph glyph-name="exclam" unicode="!" horiz-adv-x="273" 
d="M158 320q-2 -23 -5 -40t-17 -20l-4 -2q-17 0 -26.5 20t-9.5 38q-6 46 -28 160q-16 81 -16 144q0 9 2 35.5t2 29.5q0 19 20 24.5t54 5.5q32 0 58.5 -8.5t26.5 -28.5q-12 -96 -23 -178t-34 -180zM223 92q0 -37 -26 -63t-64 -26q-36 0 -63 26t-27 63t26.5 63.5t63.5 26.5
t63.5 -26.5t26.5 -63.5z" />
    <glyph glyph-name="quotedbl" unicode="&#x22;" horiz-adv-x="351" 
d="M270 709q0 -18 -2 -24l-16 -204q0 -16 -3.5 -24t-10.5 -8q-10 0 -12.5 14t-3.5 18l-16 204v24q0 32 8 44t24 12t24 -12.5t8 -43.5zM133 685l-16 -204q-2 -12 -4 -22t-12 -10q-9 0 -11.5 10.5t-2.5 21.5l-16 204q-1 4 -1 7q-1 8 -1 17q0 32 8 44t24 12t24 -12.5t8 -43.5
v-24z" />
    <glyph glyph-name="numbersign" unicode="#" horiz-adv-x="533" 
d="M493 395h-104l-20 -141h94l4 -44h-104l-30 -210h-50l30 210h-128l-31 -210h-50l28 210h-102l-2 44h110l20 141h-102l-2 44h110l31 211h50l-30 -211h130l30 211h50l-30 -211h94zM339 395h-128l-22 -141h130z" />
    <glyph glyph-name="dollar" unicode="$" horiz-adv-x="532" 
d="M451 188q0 -85 -57 -140q-52 -51 -143 -65v-96h-22v96q-111 0 -169 100q-19 33 -36 101l14 4q25 -70 72 -118q54 -55 119 -55v293q-102 57 -123 74q-60 51 -60 126q0 71 55 114.5t128 43.5v97h22v-97q95 0 149 -85q18 -28 35 -86l-12 -4q-19 54 -67 94.5t-105 48.5v-255
q92 -43 141 -85q59 -51 59 -106zM229 397v237q-45 0 -77 -29t-32 -75q0 -48 34 -82q21 -21 75 -51zM375 145q0 51 -39 91q-29 30 -85 58v-279q50 0 87 39t37 91z" />
    <glyph glyph-name="percent" unicode="%" horiz-adv-x="755" 
d="M323 469q-10 -66 -24 -99q-43 -100 -137 -100q-70 0 -111.5 55t-41.5 140q0 82 46.5 139.5t116.5 57.5q72 0 111.5 -54t39.5 -139zM574 656l-369 -661h-39l368 661h40zM725 198q-10 -67 -24 -100q-43 -100 -137 -100q-70 0 -111.5 55t-41.5 140q0 83 45.5 140t117.5 57
q71 0 111 -54t40 -138zM268 469q0 75 -22 118q-25 48 -76 48q-59 0 -89 -55q-24 -43 -24 -102q0 -90 40 -141q32 -41 67 -41q46 1 75 52t29 121zM669 198q0 74 -22 117q-25 49 -76 49q-59 0 -89 -55q-24 -43 -24 -103q0 -89 41 -141q32 -41 67 -41q47 1 75 51.5t28 122.5z
" />
    <glyph glyph-name="ampersand" unicode="&#x26;" horiz-adv-x="803" 
d="M729 15q-16 2 -61.5 4t-61.5 2q-58 0 -123 -6l-34 76q-46 -43 -97 -67.5t-109 -24.5q-88 0 -145 57t-57 144q0 86 69 149q59 54 151 78q-73 50 -87 64q-44 43 -44 95q0 61 53 100q48 35 112 35q82 0 127 -31q55 -37 55 -116q0 -58 -39 -93q-22 -19 -91 -52
q44 -45 86 -112q20 -32 69 -121q26 41 56 116q34 87 34 129q0 25 -16.5 39.5t-45.5 21.5q31 3 49 4q54 4 81 4q14 0 14 -17q0 -15 -20.5 -57.5t-41.5 -84.5q-28 -60 -43 -91q-26 -52 -51 -90q31 -63 87 -98q51 -32 124 -43v-14zM399 562q0 55 -23 90q-26 39 -73 39
q-40 0 -62 -32.5t-22 -74.5q0 -53 51 -99q17 -15 51 -36q42 27 49 34q29 30 29 79zM437 115q-62 151 -83 192q-29 56 -67 102q-68 -20 -109.5 -68.5t-41.5 -118.5q0 -63 44 -111q48 -52 121 -52q34 0 72.5 16t63.5 40z" />
    <glyph glyph-name="quotesingle" unicode="'" horiz-adv-x="238" 
d="M144 709q0 -18 -2 -24l-16 -204q0 -16 -3.5 -24t-9.5 -8q-10 0 -12 12.5t-3 19.5l-16 204v24q0 31 8 43.5t23 12.5q16 0 23.5 -11.5t7.5 -44.5z" />
    <glyph glyph-name="parenleft" unicode="(" horiz-adv-x="295" 
d="M235 71l-8 -6q-60 51 -92 86q-47 52 -70 101q-27 58 -27 123q0 91 58 178q49 74 131 134l6 -7q-68 -70 -100.5 -143t-32.5 -162q0 -90 37 -169q34 -71 98 -135z" />
    <glyph glyph-name="parenright" unicode=")" horiz-adv-x="295" 
d="M247 363q0 -89 -59 -176q-48 -71 -132 -134l-6 6q70 72 102.5 143.5t32.5 160.5q0 93 -35.5 167.5t-101.5 137.5l10 8q88 -75 130 -136q59 -85 59 -177z" />
    <glyph glyph-name="asterisk" unicode="*" horiz-adv-x="544" 
d="M468 521q0 -38 -74.5 -43.5t-102.5 -14.5q18 -26 73 -73q41 -35 41 -59q0 -14 -10 -24t-25 -10q-35 0 -53.5 57t-44.5 94q-17 -24 -26 -41t-19 -48q-22 -62 -55 -62q-14 0 -25 11t-11 25q0 23 43 58q56 45 74 72q-30 10 -48 13t-53 3q-77 0 -77 42q0 16 11 27t29 11
q14 0 81 -41q38 -23 65 -32q0 29 -12.5 77t-12.5 69q0 19 10 31t26 12t26.5 -12.5t10.5 -30.5q0 -14 -17 -84q-9 -37 -9 -62q25 8 43.5 17.5t46.5 28.5q34 25 56 25q39 0 39 -36z" />
    <glyph glyph-name="plus" unicode="+" horiz-adv-x="612" 
d="M524 304h-189v-191h-58v191h-189v58h189v191h58v-191h189v-58z" />
    <glyph glyph-name="comma" unicode="," horiz-adv-x="249" 
d="M199 81q0 -9 -2 -22.5t-4.5 -29.5t-7.5 -26.5t-19 -25.5t-50.5 -34.5t-49.5 -19.5l-4 2l6 8l30 28q7 9 10 22t6 24q-12 0 -23.5 7t-22.5 19q-18 25 -18 50q0 33 26 56q21 18 46 18q13 0 31 -7.5t28 -17.5t14 -23t4 -28z" />
    <glyph glyph-name="hyphen" unicode="-" horiz-adv-x="690" 
d="M628 284q0 -14 -4 -20q-8 -14 -15 -23t-25 -21q-21 -16 -34 -21t-40 -5l-21 -2q-31 0 -63 11q-91 32 -103 33l-82 14h-14q-20 -2 -66 -23q-24 -11 -33 -11t-20 -1.5t-22 -2.5q-7 0 -10 3q-1 1 -2 3q0 2 5.5 12t10.5 20q27 44 79 66q30 12 58 12q27 0 68 -12l46 -14
q51 -21 76.5 -28.5t49.5 -7.5l20 2q33 0 47 3t32 19q11 9 21.5 13.5t18.5 4.5q22 0 22 -24z" />
    <glyph glyph-name="period" unicode="." horiz-adv-x="225" 
d="M183 77q0 -27 -20 -47t-48 -20t-48 19t-20 48q0 28 20 48t48 20t48 -20t20 -48z" />
    <glyph glyph-name="slash" unicode="/" horiz-adv-x="510" 
d="M459 711l-377 -720h-44l383 720h38z" />
    <glyph glyph-name="zero" unicode="0" horiz-adv-x="636" 
d="M611 367q-8 -48 -15 -95q-27 -110 -81 -177q-78 -96 -201 -96h-4q-126 0 -202.5 102t-76.5 258q0 152 85 258t216 106q132 0 207 -102q72 -97 72 -254zM509 367q0 139 -41 218q-46 89 -140 89h-4q-105 0 -161 -102q-44 -80 -44 -189q0 -166 75 -261q59 -75 124 -75l3 2
q85 0 138 96q50 90 50 222z" />
    <glyph glyph-name="one" unicode="1" horiz-adv-x="636" 
d="M376 43q0 -12 -6 -18t-20 -12q-4 -1 -11 -3.5t-10 -2.5q-9 0 -20.5 6t-21.5 14q-26 20 -26 50l2 8l2 155q0 53 -4 156t-4 150q-1 5 -11.5 7.5t-12.5 4.5q-8 12 -8 22q0 13 13 37q10 17 13 23q9 12 20 20t42 24q25 11 39 11q13 0 16.5 -9.5t3.5 -31.5v-132l-2 -260
q0 -30 3 -101t3 -112v-6z" />
    <glyph glyph-name="two" unicode="2" horiz-adv-x="636" 
d="M591 137q0 -11 -10 -26.5t-22 -27.5q-39 -44 -72.5 -62t-84.5 -24h-18q-26 0 -58 14q-73 32 -104 32h-22q-17 0 -25 -2q-20 -7 -44 -14l-36 -6q-13 0 -19.5 6t-6.5 14l2 14q12 42 39 84q22 35 62 81l120 104q31 42 36 49q30 44 30 90v10q0 56 -17 96q-22 52 -65 57h-14
q-42 0 -80.5 -32.5t-38.5 -69.5l4 -20q8 -27 23.5 -47t35.5 -20l10 2q20 6 32.5 7t43.5 1q-3 -20 -10 -34.5t-22 -37.5q-23 -33 -70 -33l-28 3q-40 7 -69.5 52.5t-29.5 97.5q0 74 62 121.5t141 47.5h14q84 0 141 -67t57 -158q0 -63 -23 -106.5t-77 -80.5l-130 -60
q-37 -31 -59 -58q-27 -33 -27 -57q8 0 52 17t74 17q19 0 68 -21q25 -11 46 -11q52 0 77 18q25 22 44 38q8 8 20.5 15t23.5 7l16 -4q8 -8 8 -16z" />
    <glyph glyph-name="three" unicode="3" horiz-adv-x="636" 
d="M556 206q0 -90 -76 -150q-72 -57 -169 -57h-22q-57 0 -99.5 16t-71.5 54q-9 12 -15.5 27t-6.5 27t4.5 25t13.5 28q13 20 30 27q6 3 38 9h10q28 0 28 -20q0 -8 -6 -14q-13 -13 -16 -33l-2 -8q0 -21 22 -40q30 -27 38 -32q21 -14 43 -14l16 2q49 7 77 35q33 34 33 94v20
q0 57 -24 88q-27 35 -94 52q-32 4 -32 15q0 5 6.5 8.5t21.5 7.5q31 12 51.5 41.5t20.5 66.5q0 44 -14 72q-17 35 -50 35q-27 0 -50.5 -21.5t-23.5 -48.5l2 -12q3 -11 18 -21t16 -20v-14l-4 -20q-14 -26 -51 -26h-4q-28 0 -56 28t-28 54l4 19q25 59 67 90q46 34 106 34h10
q66 0 115 -30q55 -34 65 -94l2 -29q0 -28 -11.5 -50.5t-34.5 -43.5q49 -29 76 -70.5t27 -96.5v-10z" />
    <glyph glyph-name="four" unicode="4" horiz-adv-x="636" 
d="M568 204h-96l-2 -65l2 -130q0 -6 -16.5 -10t-35.5 -4q-22 0 -36 3.5t-14 10.5l-2 86l2 107h-293l-4 16q97 105 194 211q104 111 177 171q8 8 31 14q7 1 21 4l-307 -322h181v185l96 65h6v-252h96v-90z" />
    <glyph glyph-name="five" unicode="5" horiz-adv-x="636" 
d="M311 -9h-4q-102 0 -172 46q-76 50 -101 147l-2 6q0 10 10 30q16 28 52 28h8q23 0 39.5 -15t21.5 -37q17 -69 54 -113q43 -52 102 -52l6 2q66 0 105 64q35 57 35 135v8q0 60 -21 103.5t-67 63.5q-22 9 -36 13.5t-26 4.5q-14 0 -32 -6q-3 -1 -23 -16q-10 -7 -17 -8l-10 -2
q-16 0 -29 6.5t-13 19.5q0 74 1.5 104t5.5 64t28.5 42.5t28.5 10.5q21 6 40 6q15 0 50 -9t56 -9q18 0 55 -9q21 -5 32 -5q7 0 18 2.5t18.5 4l22.5 4.5t21 3q16 0 16 -10q0 -9 -14 -34q-6 -10 -14.5 -33t-17.5 -29q-22 -16 -50 -16q-22 0 -52 10t-59 20q-8 3 -25 16.5
t-25 13.5l-6 -2q-14 -7 -23 -22t-9 -30q0 -25 18 -43q12 -8 16 -8q6 0 41 15q17 7 29 7q86 0 155 -80q62 -72 62 -145q0 -115 -89.5 -191t-209.5 -76z" />
    <glyph glyph-name="six" unicode="6" horiz-adv-x="636" 
d="M618 236q0 -69 -47 -124q-39 -45 -102 -73q-46 -22 -92.5 -35t-85.5 -13q-31 0 -60.5 7.5t-59.5 24.5q-66 39 -99.5 98.5t-33.5 134.5l4 40q13 102 125 207q100 93 250 165q14 6 36 12.5t38 6.5q27 0 35 -11q1 -1 2 -8q0 -9 -19 -22q-15 -10 -34 -20q-98 -57 -141 -90
q-69 -52 -109 -110q-46 -67 -59 -150q-2 -16 -6 -52t-4 -46q0 -39 13.5 -68.5t45.5 -46.5q22 -10 50.5 -17t55.5 -7q34 0 65.5 8.5t58 26t43 49t16.5 65.5q0 24 -10.5 47.5t-32 41t-50.5 17.5q-16 0 -34 -6q-9 -3 -36 -22q-23 -16 -36 -16q-4 0 -17 7t-23 22t-10 31
q0 19 16 37q34 35 66.5 47.5t79.5 12.5h20q69 0 120.5 -39.5t60.5 -103.5v-28z" />
    <glyph glyph-name="seven" unicode="7" horiz-adv-x="636" 
d="M593 602q0 -15 -20 -48q-30 -48 -106 -146q-30 -38 -51 -78q-36 -71 -57 -127.5t-43 -141.5q-6 -37 -46 -52q-18 -9 -42 -9q-32 0 -54 25q-12 14 -15 19q-7 11 -7 21l6 20q24 51 45 85q55 86 77 130q13 25 52 68q92 101 102 117q5 8 9.5 17t4.5 14q0 10 -12 10l-30 -6
q-15 -2 -31 -4t-21 -2q-17 0 -36.5 3t-31.5 5.5t-56 36.5q-19 15 -32 15l-16 -4q-12 -8 -18 -34.5t-14 -33.5q-12 -13 -17 -18q-9 -9 -16 -9q-5 0 -14 5.5t-14 8.5q-10 7 -10 19l2 30l-4 20q-3 7 -21 17.5t-19 22.5q0 11 4 19q2 4 20 25q11 13 25 17.5t33 4.5l55 -2h4
q47 0 102 -22q75 -30 97 -34.5t47.5 -9t43.5 -4.5q16 0 33.5 3.5t35.5 10.5q9 3 20.5 5.5t17.5 2.5q18 0 18 -12z" />
    <glyph glyph-name="eight" unicode="8" horiz-adv-x="636" 
d="M534 216q0 -90 -62.5 -156.5t-145.5 -66.5q-79 0 -143 68t-64 153q0 62 49 116q40 44 100 71q-42 27 -66 54q-35 39 -35 77q0 64 52 102q47 34 113 34q63 0 107 -32q51 -37 51 -98q0 -47 -27.5 -80.5t-72.5 -52.5q59 -43 91 -78q53 -58 53 -111zM424 532q0 50 -27 80
t-75 30q-29 0 -38.5 -16.5t-9.5 -51.5l2 -20q0 -41 29 -78q21 -26 65 -59q31 20 42.5 46t11.5 69zM424 180q0 64 -46 123q-27 35 -88 86q-35 -15 -54 -64t-19 -99q0 -83 26 -139q32 -68 93 -68q49 0 71 51q17 40 17 110z" />
    <glyph glyph-name="nine" unicode="9" horiz-adv-x="636" 
d="M606 437l-2 -40q-11 -104 -123 -208q-98 -91 -252 -164q-22 -10 -37 -15q-26 -9 -42 -9q-19 0 -30 14l-4 6q0 9 20 23q10 7 35 23q97 57 141 90q71 53 110 110q45 66 57 150q3 25 5.5 54.5t2.5 42.5q0 39 -12 68.5t-42 45.5q-21 10 -53 17t-59 7q-34 0 -64 -8.5t-55 -26
t-43.5 -50t-18.5 -63.5q0 -23 12 -46t34 -42t47 -19q7 0 12 1q7 1 24 7q6 2 45 26q16 10 25 10l18 -4q32 -21 32 -58q0 -20 -14 -34q-33 -35 -66 -48t-80 -13l-20 2q-68 0 -120 39.5t-61 103.5l-2 24q0 70 48 126q41 48 103 75q53 22 91 33q49 14 87 14q61 0 120 -31
q64 -38 97.5 -99t33.5 -134z" />
    <glyph glyph-name="colon" unicode=":" horiz-adv-x="238" 
d="M185 429q0 -33 -23.5 -52.5t-48.5 -19.5q-30 0 -53 26q-9 11 -13.5 21t-4.5 23q0 35 26 58q20 17 45 17q33 0 56 -25q8 -9 12 -21.5t4 -26.5zM185 69q0 -33 -25 -54q-18 -15 -47 -15q-15 0 -28.5 5.5t-23.5 17t-14.5 21.5t-4.5 23q0 35 26 58q19 16 45 16q33 0 56 -24
q8 -9 12 -21.5t4 -26.5z" />
    <glyph glyph-name="semicolon" unicode=";" horiz-adv-x="249" 
d="M189 435q0 -33 -23.5 -52.5t-47.5 -19.5q-31 0 -54 26q-9 11 -13.5 21t-4.5 23q0 35 26 58q19 17 46 17q32 0 55 -25q8 -9 12 -21.5t4 -26.5zM203 81q0 -9 -2 -22.5t-4.5 -29.5t-7.5 -27t-19 -25.5t-50.5 -34t-49.5 -19.5l-4 2l6 8l30 28q7 9 10 22t6 24q-12 0 -23.5 7
t-22.5 19q-18 25 -18 50q0 33 26 56q21 18 44 18q15 0 33 -7.5t28 -17.5t14 -23t4 -28z" />
    <glyph glyph-name="less" unicode="&#x3c;" horiz-adv-x="611" 
d="M514 97l-440 197v48l440 196v-71l-351 -149l351 -150v-71z" />
    <glyph glyph-name="equal" unicode="=" horiz-adv-x="747" 
d="M659 405h-578v80h578v-80zM659 230h-576v84l4 2h572v-86z" />
    <glyph glyph-name="greater" unicode="&#x3e;" horiz-adv-x="611" 
d="M537 294l-440 -197v71l350 150l-350 149v71l440 -196v-48z" />
    <glyph glyph-name="question" unicode="?" horiz-adv-x="441" 
d="M372 564q0 -73 -65 -150q-84 -100 -101 -144q-7 -24 -10.5 -48t-3.5 -54h-14q-3 19 -4 28q-4 27 -4 46q0 71 73 214q35 69 35 130q0 46 -18 74q-21 33 -62 33q-45 0 -65 -28.5t-20 -74.5q0 -25 6 -52l-76 -20q-4 8 -6 21.5t-2 24.5q0 74 50 113.5t125 39.5
q68 0 115 -42.5t47 -110.5zM252 51q0 -26 -17 -42t-41 -16q-25 0 -42 16t-17 42t17 43t42 17q23 0 40.5 -17.5t17.5 -42.5z" />
    <glyph glyph-name="at" unicode="@" horiz-adv-x="905" 
d="M874 359q0 -158 -133 -262q-124 -97 -288 -97h-4q-149 0 -265 77q-127 84 -149 223l-4 51q0 156 134 265q126 103 288 103q163 0 287 -97q134 -104 134 -263zM811 359q0 135 -114 224q-106 83 -244 83q-135 0 -244 -88q-116 -94 -116 -225l4 -43q18 -117 127 -191
q101 -68 225 -68l4 2q139 0 245 83q113 89 113 223zM690 202q0 -10 -6 -10l-36 -4q-4 0 -11 2t-13 4q-5 2 -11 10t-7 8q-8 11 -38 75q-12 26 -16 29l-4 -2q-55 -3 -107.5 -5.5t-73.5 -2.5l-16 2h-8q-7 0 -18 -16q-21 -36 -54 -80l-14 -18l-16 -4q-9 0 -12 10l-4 8q3 11 4 12
q47 66 94 133q55 81 88 155q1 4 5.5 11t4.5 11t-11 10t-11 10l2 4q6 12 10 12h4l52 -8q6 -3 10 -8l8 -12q23 -26 66 -97q9 -14 76 -129q41 -69 57 -92q6 -6 6 -18zM526 355l-2 10q-10 22 -29 55q-24 42 -26 45q-3 7 -11 12q-2 1 -7 4q-9 0 -18 -18q-12 -22 -44 -67
q-23 -33 -34 -49l-4 -11q0 -4 16 -4q26 0 77 5t74 5q8 0 8 13z" />
    <glyph glyph-name="A" unicode="A" horiz-adv-x="984" 
d="M931 27q0 -22 -14 -22q-12 -2 -30 -3.5t-26 -1.5q-28 0 -58 9q-10 2 -18.5 14.5t-13.5 19.5q-18 23 -45 80q-54 114 -59 117q-12 4 -24 4l-22 -2q-48 0 -183 -12q-68 -6 -112 -6l-42 2h-16q-7 0 -14.5 -3.5t-19.5 -24.5q-20 -35 -63 -98q-30 -44 -41 -59q-1 -1 -11 -17
q-6 -10 -15 -15l-30 -8q-16 0 -26 16q-6 12 -6 16q0 10 8 26q22 32 118 168q77 108 120 178q64 103 108 203q2 6 11 19t9 21q0 11 -20 23t-20 20l2 4q1 7 8 15.5t14 8.5h4q50 -8 101 -16q10 -2 18.5 -14t17.5 -23q41 -47 125 -185q2 -4 146 -247q81 -136 111 -175
q8 -12 8 -32zM617 320q0 10 -4 18q-17 37 -54 103q-14 25 -48 87q-10 18 -19 26t-18 8q-16 0 -34 -36q-22 -44 -65 -105t-85 -121l-8 -18q0 -10 32 -10l12 -2q47 0 142 11t135 11q6 0 10 9t4 19z" />
    <glyph glyph-name="B" unicode="B" horiz-adv-x="600" 
d="M545 226q0 -68 -33.5 -116t-97.5 -79q-39 -19 -85.5 -26.5t-98.5 -7.5l-113 3h-6l-20 -1q-9 0 -12 4q-6 6 -6 12l2 20q0 92 -2 210.5t-4 236t-2 205.5q0 12 9 21t21 9q47 0 110 -3t95 -3q58 0 107 -41t49 -90v-6q0 -26 -12 -56q-17 -35 -24 -51l-4 -12q0 -7 6 -15t14 -13
q45 -27 76 -79t31 -112v-10zM432 214v12q0 84 -52 140q-44 47 -88 47q-7 0 -15.5 4.5t-8.5 9.5l4 8q28 28 41 47q27 39 27 74v4q0 60 -38 92q-31 26 -74 26l-20 -2q-16 -5 -16 -16v-328q0 -38 -1 -118t-1 -123q0 -9 4 -18q2 -3 9.5 -14.5t19.5 -17.5t25 -6q19 0 42 8
q12 4 42 18q48 22 74 62.5t26 90.5z" />
    <glyph glyph-name="C" unicode="C" horiz-adv-x="735" 
d="M680 83q0 -9 -7.5 -20t-14.5 -12q-126 -44 -229 -44q-166 0 -274.5 95.5t-108.5 246.5l-2 4q0 124 110 231.5t247 124.5q16 1 27.5 1.5t18.5 0.5h14q26 0 60 -3q80 -7 101 -7q29 0 39.5 -6.5t10.5 -18.5l-2 -16l-2 -10q0 -6 4 -22t4 -26q0 -12 -2 -18l-4 -4q-4 0 -16 8
q-39 25 -40 26q-48 25 -68 33q-55 23 -111 23h-24q-132 -12 -193.5 -90t-61.5 -225l2 -6q0 -119 110 -198q103 -74 240 -74q34 0 64 4.5t60 13.5l26 4q22 0 22 -16z" />
    <glyph glyph-name="D" unicode="D" horiz-adv-x="678" 
d="M377 21q-24 -11 -52 -16.5t-78 -5.5h-48l-71 -4h-14q-42 0 -42 22q0 8 3 19q9 32 9 35l2 380l-2 205q0 8 -14 14t-14 14l-2 3q0 12 13 21t27 9l66 -2q11 0 36 2t39 2h24q150 0 248 -72q117 -86 117 -250q0 -133 -63 -229t-184 -147zM487 357v36q0 114 -54 194
q-64 95 -180 95h-12q-21 0 -29.5 -29t-8.5 -63l-2 -272q0 -45 2 -145.5t2 -101.5q0 -42 46 -42q21 0 51 9q11 3 37 13q76 28 115 122q33 80 33 184z" />
    <glyph glyph-name="E" unicode="E" horiz-adv-x="475" 
d="M416 89l-4 -8l-52 -62q-13 -12 -44 -12q-38 -4 -86.5 -6t-86.5 -2l-84 2q-14 0 -18 7.5t-4 32.5v507l2 139q2 17 7 22q11 12 43 12h74q75 0 138.5 -2.5t92.5 -7.5q8 0 14 -15t6 -26q0 -12 -6 -12q-41 7 -115.5 16.5t-92.5 9.5h-6q-26 -3 -26 -22q-3 -16 -5 -77.5
t-2 -93.5q0 -26 3 -33.5t18 -8.5l28 -2q35 0 64.5 2.5t51.5 7.5l22 2q9 0 12 -10v-18l-2 -36q0 -3 -3 -6q-2 -1 -3 -2q-6 4 -13.5 7t-14.5 3q-19 0 -55 4t-49 4q-22 0 -31.5 -2t-18.5 -3.5t-9 -14.5q0 -22 -2 -87.5t-2 -73.5l2 -133q0 -42 33 -42l16 2q53 7 102 21
q25 7 80 27h8q7 0 12 -3q6 -3 6 -7z" />
    <glyph glyph-name="F" unicode="F" horiz-adv-x="475" 
d="M415 670q0 -12 -6 -12q-41 7 -115.5 16.5t-92.5 9.5h-6q-26 -3 -26 -22q-3 -16 -5 -77.5t-2 -93.5q0 -26 3 -33.5t18 -8.5l28 -2q35 0 64.5 2.5t51.5 7.5l22 2q9 0 12 -10v-18l-2 -36q0 -3 -3 -6q-2 -1 -3 -2q-6 4 -13.5 7t-14.5 3q-19 0 -55 4t-49 4q-22 0 -31.5 -2
t-18.5 -3.5t-9 -14.5q0 -22 -2 -92t-2 -81l2 -155v-13q0 -40 -20 -43l-34 -1l-46 1q-14 0 -18 7.5t-4 32.5v507l2 139q2 17 7 22q11 12 43 12h74q75 0 138.5 -2.5t92.5 -7.5q8 0 14 -15t6 -26z" />
    <glyph glyph-name="G" unicode="G" horiz-adv-x="803" 
d="M735 330v-38q0 -84 -1.5 -112.5t-10.5 -112.5q-3 -24 -16.5 -36.5t-36.5 -20.5t-41 -10.5t-44 -2.5h-52q-196 0 -331 91q-145 98 -145 259l2 16q0 127 120 234q101 90 211 112q57 10 119 10q37 0 73 -3t75 -11q10 -2 22 -13t12 -22v-4q-2 -6 -10 -14l-18 -4q-4 0 -12 4
q-27 19 -63 28t-75 9q-56 0 -107 -15q-105 -33 -159 -120q-49 -79 -49 -189l2 -6q0 -112 105 -213t228 -101l30 2q20 2 41 9t21 15v36q0 41 -15 163q-7 57 -7 101q0 8 10 15t19 12t25 5q15 0 28 -4.5t26 -15.5q24 -21 24 -49v-4z" />
    <glyph glyph-name="H" unicode="H" horiz-adv-x="814" 
d="M741 41q0 -12 -5.5 -22t-15.5 -10l-34 -4q-7 0 -16 1.5t-16.5 2.5t-11.5 11t-6 29q0 75 -4 132q-12 171 -12 198l-443 -8v-143q0 -31 1 -49q5 -88 5 -100q0 -32 -4 -46q-7 -24 -27 -24q-8 0 -25 -3t-25 -3q-5 0 -12.5 2t-13.5 4q-18 6 -18 30l2 10l2 127q0 72 -5.5 237
t-5.5 219l2 59q0 14 1.5 22t9.5 8q20 0 42.5 1t25.5 1q9 0 18.5 -8t9.5 -16q7 -42 9 -107q6 -166 8 -187l443 16q0 13 -2 47.5t-2 41.5q0 45 1.5 103.5t2.5 95.5q0 4 6 9t12 5h4q17 -2 31 -2h29q14 -3 20 -15t6 -26q0 -96 3 -201t6.5 -230.5t3.5 -199.5v-8z" />
    <glyph glyph-name="I" unicode="I" horiz-adv-x="227" 
d="M155 41q0 -19 -2.5 -30t-9.5 -11l-48 -5l-20 2q-12 1 -18 14t-6 30v183l-2 386l2 87q0 18 22 18l36 -2h22q16 0 16 -8q0 -27 2 -147.5t4 -257t2 -239.5v-20z" />
    <glyph glyph-name="J" unicode="J" horiz-adv-x="498" 
d="M436 198q0 -70 -36 -115q-31 -39 -90 -60q-60 -24 -112 -24q-30 0 -57.5 8t-57.5 28q-23 13 -33.5 35t-10.5 49q0 9 2 21.5t4 24.5q16 62 78 91q27 12 55 12q12 0 28 -3.5t22 -9t6 -11.5q0 -11 -20 -18q-23 -6 -40.5 -27.5t-22.5 -49.5l-2 -22q0 -23 14 -48
q23 -34 67 -34q9 0 23 4l21 6q36 13 48 56q8 28 8 87v501q0 21 20 24l40 4h26q12 -1 16 -10t4 -26v-493z" />
    <glyph glyph-name="K" unicode="K" horiz-adv-x="515" 
d="M474 29l-2 -8q-9 -15 -24.5 -22.5t-45.5 -7.5q-52 0 -84 63q-24 49 -40 145l-22 160q-6 52 -25 85t-41 33q-25 0 -25 -98q3 -105 5 -186.5t2 -175.5q0 -10 -8 -14t-18 -5.5t-22 -2t-17 -0.5l-42 2h-14l-4 3l2 13l-2 134q0 124 1.5 256.5t2.5 212.5v95q0 4 17.5 6t40.5 2
q31 0 46 -1.5t15 -6.5q1 -12 1.5 -30t0.5 -35l-2 -86v-4q0 -5 3 -10q0 -1 3 -2q4 1 5 2q6 3 7 6q21 26 100 95q21 19 86 74l58 -2q4 0 8 -6t4 -12q-32 -31 -97 -83q-115 -93 -115 -98q1 -5 32 -24t44 -41q18 -35 29 -84q10 -57 15 -81q16 -128 22 -177q11 -84 46 -84l34 20
q7 0 13.5 -6.5t6.5 -13.5z" />
    <glyph glyph-name="L" unicode="L" horiz-adv-x="665" 
d="M620 159q0 -14 -10 -44q-13 -34 -33.5 -49t-40.5 -29q-13 -12 -45 -25q-10 -4 -30 -11l-369 -1q-21 0 -30 17l-4 6q0 2 3 11t3 15l-2 636q0 14 9 25.5t21 12.5q14 0 33 2t33 2q12 -1 15.5 -12t3.5 -30l4 -600l-2 -22q0 -14 10 -14q30 -3 66 -6.5t52 -3.5q68 0 138 32
q61 23 115 74q32 29 48 29q12 0 12 -15z" />
    <glyph glyph-name="M" unicode="M" horiz-adv-x="872" 
d="M805 39q0 -24 -16 -31.5t-35 -7.5t-34 9q-11 4 -15.5 16t-4.5 28l-2 173q0 60 4 178t4 168q-1 2 -4 6l-2 2q-12 0 -24 -12q-70 -79 -146 -177q-68 -87 -139 -187q-3 -6 -12 -6q-8 0 -21.5 9t-18.5 15q-38 44 -103 130t-110 139h-6q-14 0 -14 -14q0 -22 -2 -76t-2 -59
l2 -229v-56q0 -27 -3 -37q-6 -20 -24 -20q-12 0 -17 12.5t-5 30.5l2 601l-2 12q0 21 3.5 35t15.5 21t24 7q15 0 32 -20q53 -67 100 -133q37 -55 74.5 -108.5t66.5 -86.5l12 -14q11 -12 18 -12l12 6q79 93 137 167q40 51 124 162q16 20 38 27.5t52 7.5q17 0 23 -16t6 -39z
" />
    <glyph glyph-name="N" unicode="N" horiz-adv-x="634" 
d="M576 584q0 -83 -1 -187t-1.5 -198.5t-1.5 -189.5q0 -16 -16 -16q-5 1 -10 5q-4 3 -8 7q-73 94 -173 233q-66 91 -149 210q-70 99 -76 106l-10 2q-8 0 -8 -10l-2 -113l2 -336v-66q0 -31 -12 -31h-14l-26 1q-8 2 -9 3q-1 2 -1 23v301l-2 186l2 191q0 16 20 16h16
q24 0 41 -3.5t23 -12.5q38 -53 137.5 -196t121.5 -174q55 -77 83 -113l2 -2q4 0 10 6t6 16l-2 189l2 262q0 5 4.5 13t9.5 9h8q18 0 26 -3.5t8 -18.5v-109z" />
    <glyph glyph-name="O" unicode="O" horiz-adv-x="872" 
d="M815 367q-10 -48 -20 -95q-36 -109 -109 -177q-103 -96 -267 -96h-6q-166 0 -269 104q-99 100 -99 256q0 152 113 258t287 106q175 0 275 -102q95 -97 95 -254zM712 367q0 134 -70 218q-74 89 -203 89h-4q-142 0 -223 -102q-66 -83 -66 -189q0 -165 108 -261
q84 -75 173 -75l3 2q116 0 199 95.5t83 222.5z" />
    <glyph glyph-name="P" unicode="P" horiz-adv-x="544" 
d="M491 532q0 -38 -54 -88q-37 -34 -90 -65q-18 -11 -37 -15.5t-39 -4.5l-30 2q-20 0 -20 8q0 11 27 15t31 5q17 4 34 14q30 19 41 48t11 69v20q0 53 -22 93t-68 56l-48 14q-8 0 -18 -7t-17 -13.5t-7 -14.5l-2 -112q0 -76 1.5 -168t2.5 -150l-4 -183q-2 -17 -3 -33
q-4 -19 -16 -19l-46 -2l-38 4q-12 0 -12 22l4 40q0 110 1.5 228.5t2.5 193.5l-2 195q0 5 -11 11t-11 12q0 10 7.5 12.5t22.5 2.5q10 0 14 1h107q63 0 100 -8q84 -23 132 -63q56 -47 56 -114v-6z" />
    <glyph glyph-name="Q" unicode="Q" horiz-adv-x="871" 
d="M1042 -103q-1 -4 -1 -6q-2 -5 -7 -12q-33 -44 -54 -44q-13 -3 -29.5 -6t-32.5 -3q-17 0 -30 3t-31 12q-53 23 -98 82q-59 78 -87 100l-38 34q-41 -27 -95.5 -42.5t-121.5 -15.5q-169 0 -271.5 101.5t-102.5 258.5q0 153 113.5 258.5t288.5 105.5q174 0 274 -102
q95 -97 95 -254q-4 -23 -7 -46q-12 -56 -37 -107q-34 -71 -88 -121l32 -32q35 -42 73 -84.5t86 -65.5q27 -13 45.5 -16.5t55.5 -3.5q12 0 27.5 3.5t32.5 6.5zM710 367q0 133 -70 218q-73 89 -201 89q-147 0 -228 -101q-66 -82 -66 -190q0 -167 109 -261q84 -73 175 -73
q90 0 151 52q-5 3 -9 6q-6 4 -11 4q-11 5 -24.5 6.5t-33.5 1.5h-49q-18 0 -34 8q-27 16 -31 22q-3 11 -7 21l-2 6q0 7 9 10.5t25 3.5q14 0 37 -3q55 -7 66 -7q63 -9 108 -39q86 94 86 226z" />
    <glyph glyph-name="R" unicode="R" horiz-adv-x="566" 
d="M516 57q0 -8 -6 -20q-12 -19 -33.5 -29.5t-53.5 -10.5q-88 0 -117 140q-9 83 -17 167q-7 33 -21 54q-22 33 -61 41q-16 0 -16 10l6 8q40 15 67 47q35 42 35 100q0 48 -30 80t-72 32h-31q-18 0 -18 -14q0 -60 0.5 -155t1.5 -224t2 -256q0 -10 -5.5 -18.5t-14.5 -8.5
l-44 -1l-26 1q-6 0 -9 5t-3 20q0 116 2 370.5t2 299.5q0 24 30 24q13 0 44 1t36 1h17q98 0 148 -39t50 -110v-8q0 -85 -72 -129q-11 -7 -14 -9q-6 -5 -6 -9q2 -2 4 -3q9 -6 14 -9q57 -27 71 -123q5 -81 12.5 -161t56.5 -80q10 0 19 5t25 17q6 6 15 6q12 0 12 -12z" />
    <glyph glyph-name="S" unicode="S" horiz-adv-x="543" 
d="M493 685q-6 -19 -7.5 -30.5t-10 -17t-16.5 -5.5q-11 0 -26 10q-19 15 -37 30q-17 12 -35 12h-16q-39 -7 -59.5 -32t-20.5 -58l2 -4q5 -49 15 -77t39 -72q36 -56 73 -111q41 -71 41 -126q0 -33 -12 -63q-26 -65 -77 -101.5t-121 -44.5l-63 -2q-40 0 -64 9q-31 12 -48 41
q-8 14 -15 29t-7 27q0 4 2.5 11.5l3.5 10.5q11 28 38 36h12q6 0 11 -5t5 -17v-24q0 -54 30 -71q19 -11 69 -11l6 -2q50 0 87 40t37 96q0 58 -65 154q-47 70 -61 98q-22 52 -26 62q-13 35 -13 61q0 12 3 24t10 32q23 61 72 89q34 19 110 32q13 1 24.5 2.5t25.5 1.5l40 -4
q16 -3 26 -5t16 -11q2 -4 2 -14z" />
    <glyph glyph-name="T" unicode="T" horiz-adv-x="735" 
d="M682 602q0 -5 -8.5 -11.5t-15.5 -6.5q-9 0 -16 10q-32 55 -56 71q-36 24 -117 24q-26 0 -31 -6q-4 -4 -7 -29q0 -14 -2 -58t-2 -56q0 -72 2.5 -171.5t6 -212t3.5 -133.5q0 -12 -8 -17t-22 -7h-22l-4 -2l4 2l-24 6q-21 3 -24 30q0 23 -4 110t-4 143l2 284v96q0 14 -16 14
l-26 -4q-102 -9 -140 -43q-13 -11 -55 -85q-11 -18 -30 -18q-9 0 -16.5 6.5t-7.5 15.5l2 6q11 54 17 71q2 7 29 64q7 13 29 19.5t50 6.5l445 2q29 0 39.5 -5t17 -20t9 -25.5t2.5 -20.5l-2 -38z" />
    <glyph glyph-name="U" unicode="U" horiz-adv-x="679" 
d="M629 682l-2 -62v-92q0 -138 -13 -208.5t-41 -139.5q-39 -92 -97 -137.5t-144 -45.5h-10q-96 0 -169.5 52t-85.5 139q-8 68 -12 119t-4 108q0 40 4 130t4 140l-2 10q0 15 10 18q18 6 40 6l56 -2q10 0 15.5 -11t5.5 -24q0 -85 -3 -165.5t-6.5 -171.5t-3.5 -139
q0 -64 49.5 -114.5t117.5 -50.5l6 -2q66 0 111 40t69.5 123.5t34.5 178t10 215.5v95q0 21 12 26h16q16 0 22 -4q10 -13 10 -31z" />
    <glyph glyph-name="V" unicode="V" horiz-adv-x="758" 
d="M781 695q0 -9 -6 -21q-70 -128 -129 -230q-33 -57 -117.5 -197.5t-127.5 -213.5q-13 -26 -15 -29q-10 -15 -23 -15q-17 0 -23 18t-11 36q-56 132 -99 229q-77 174 -90 205q-47 110 -83 205l-2 11q0 10 4.5 19t11.5 9q21 0 42.5 -1.5t46.5 -2.5q15 -1 21.5 -17.5
t9.5 -25.5q59 -151 69 -177q42 -107 70 -177q21 -53 79 -195q47 80 109 184q54 90 107 183q67 117 107 193q7 17 10.5 24.5t11.5 7.5h9q18 0 18 -22z" />
    <glyph glyph-name="W" unicode="W" horiz-adv-x="1022" 
d="M972 715q-46 -99 -111 -221q-42 -79 -69 -131q-22 -44 -73 -158q-45 -101 -68 -146q-33 -64 -47 -66q-12 0 -45 74t-43 74q-8 -1 -24 -36q-50 -106 -51 -108q-3 -6 -12 -6t-20 9t-18 21q-59 92 -130 232q-62 122 -120 249q-4 9 -94 213q7 2 15 5q19 3 35 3
q31 0 47.5 -1.5t18.5 -6.5q29 -58 87 -189q62 -142 91 -201q50 -104 82 -145q4 4 20 27.5t28 42.5q-86 192 -130 303q-48 120 -48 156q0 6 18 11t38 5q21 0 36.5 -2.5t17.5 -5.5q11 -13 33 -74l44 -122q29 -76 62 -134q18 27 55 96q49 92 67 125q41 75 66 111q2 2 20 2
l48 -2q-24 -58 -61 -126q-22 -39 -43 -77q-29 -54 -53 -100q-32 -61 -63 -122q13 -24 29 -63q5 -11 25 -25q25 49 51 100t109 210q73 141 108 205q0 2 9.5 3t18.5 1q17 0 30.5 -2.5t13.5 -7.5z" />
    <glyph glyph-name="X" unicode="X" horiz-adv-x="577" 
d="M520 -3q0 -4 -17.5 -6t-33.5 -2q-18 4 -30 4l-12 -2q-9 0 -44 73l-62 136q-34 74 -40 74q-11 -1 -77 -112.5t-86 -158.5q-3 -6 -18 -6h-32l-22 4q3 3 52 84q46 77 93 154q53 87 58 95q-73 157 -112 250.5t-39 124.5q0 7 11.5 10.5t30.5 3.5q15 0 33 -2t20 -6
q8 -14 45 -109t67 -159q13 19 45 78q27 51 56.5 105t54.5 89q4 4 22 4l35 -2q-19 -45 -41.5 -86.5t-46.5 -84.5t-43 -81q-31 -61 -50 -102q57 -121 99.5 -209.5t83.5 -160.5z" />
    <glyph glyph-name="Y" unicode="Y" horiz-adv-x="645" 
d="M592 711q-12 -26 -67 -104q-69 -97 -94 -135q-49 -75 -52 -99q3 -86 4 -136q5 -142 12 -220l-2 -10q0 -3 -1 -5q-1 -1 -3 1q-6 -1 -21.5 -3.5t-28.5 -2.5q-10 0 -24 2t-22 4q-4 1 -6 5q-2 3 -4 23q-8 58 -11 184t-5 140q0 5 -64 91q-74 99 -118 161q-65 90 -65 100l2 2
q11 2 25 4t29 2q16 0 24 -4q13 -9 53.5 -66t82.5 -118q60 -88 77 -110q24 36 49 72q68 101 94 138q54 77 62 84.5t28 7.5q12 0 30 -4q6 -1 16 -4z" />
    <glyph glyph-name="Z" unicode="Z" horiz-adv-x="634" 
d="M573 684v-15q0 -47 -3 -68.5t-9 -28.5q-51 -70 -147 -202q-82 -114 -132 -184q-62 -88 -84 -121l-2 -8q0 -18 18 -18h305q3 0 8.5 -6.5t5.5 -13.5v-6q0 -5 -3 -12l-3 -6h-476q-12 0 -12 20q0 8 3.5 16t4.5 10q68 103 175 253q82 114 165 229q75 105 83 119q2 4 2 6
q2 7 2 12q-2 8 -4 8h-309q-11 0 -31.5 8.5t-20.5 18.5l2 2l-2 8q0 6 18 6l75 -2l96 2l156 2h107q12 0 12 -29z" />
    <glyph glyph-name="bracketleft" unicode="[" horiz-adv-x="363" 
d="M328 632h-63q-41 0 -54.5 -9t-13.5 -37v-646q0 -55 9 -68t48 -13h73v-30h-224v833h225v-30z" />
    <glyph glyph-name="backslash" unicode="\" horiz-adv-x="510" 
d="M460 -9h-46l-377 720h40z" />
    <glyph glyph-name="bracketright" unicode="]" horiz-adv-x="363" 
d="M260 -171h-225v31h63q41 0 54.5 8.5t13.5 36.5v646q0 55 -9 68t-48 13h-73v30h224v-833z" />
    <glyph glyph-name="asciicircum" unicode="^" horiz-adv-x="522" 
d="M415 461h-69l-85 123l-84 -123h-70l123 201h63z" />
    <glyph glyph-name="underscore" unicode="_" horiz-adv-x="446" 
d="M459 -149h-470v70h470v-70z" />
    <glyph glyph-name="grave" unicode="`" horiz-adv-x="385" 
d="M270 512l-155 165h106z" />
    <glyph glyph-name="a" unicode="a" horiz-adv-x="645" 
d="M607 17q0 -14 -10 -14l-42 -3q-17 0 -28 3.5t-16 10.5q-9 12 -10 13q-10 12 -48 93q-15 32 -21 35h-8q-72 -5 -133 -8.5t-91 -3.5l-16 2h-12q-8 0 -21 -18q-21 -35 -31 -50q-15 -22 -37 -50q-4 -9 -6 -12q-3 -6 -10 -10l-20 -4q-9 0 -14.5 7t-5.5 13l4 16l118 166
q68 100 109 192q1 3 6.5 11.5t5.5 14.5t-13 14t-13 12l2 4q5 16 14 16h4l64 -10q7 -2 12.5 -11t9.5 -15q26 -29 82 -119q25 -41 96 -161q52 -89 71 -114q8 -8 8 -20zM400 208l-2 12q-11 23 -27.5 52.5t-38.5 70.5q-13 22 -24 22q-4 0 -7 -3q-6 -5 -15 -20q-17 -32 -55 -85
q-29 -41 -43 -61l-6 -12q0 -6 22 -6l14 -2q30 0 89 7t85 7q8 0 8 18z" />
    <glyph glyph-name="b" unicode="b" horiz-adv-x="396" 
d="M358 145q0 -43 -21.5 -73t-62.5 -51q-27 -13 -54.5 -17.5t-66.5 -4.5l-72 1h-18l-8 1l-4 8l2 14q0 78 -2 246.5t-2 177.5q0 5 4.5 12.5t13.5 7.5l135 -4q36 0 68 -28t32 -58q0 -19 -9.5 -40.5t-14.5 -32.5l-2 -6q0 -12 12 -20q29 -15 49.5 -51.5t20.5 -77.5v-4zM284 137
v10q0 54 -32 90q-26 29 -56 33q-18 0 -18 8l4 6q19 19 27 31q17 25 17 48q0 38 -26 59q-21 17 -49 17h-12q-10 -5 -10 -12v-185q0 -28 -1 -89t-1 -94q0 -9 10 -22q8 -14 28 -14q9 0 20 3q25 10 35 13q30 13 47 39.5t17 58.5z" />
    <glyph glyph-name="c" unicode="c" horiz-adv-x="475" 
d="M445 53q0 -6 -4 -12t-10 -8q-81 -28 -148 -28q-110 0 -180.5 62.5t-70.5 160.5l-2 2q0 81 71.5 150.5t161.5 80.5l40 2q18 0 52 -4t52 -4q16 0 23 -5.5t7 -12.5v-8l-2 -8q0 -5 3 -16t3 -16v-10l-4 -2q-4 0 -11 5q-24 17 -25 17q-37 18 -58 25q-31 11 -58 11h-14
q-85 -7 -126 -58t-41 -143l2 -6q0 -78 71 -130q67 -49 156 -49q21 0 36 2.5t44 9.5l18 2q14 0 14 -10z" />
    <glyph glyph-name="d" unicode="d" horiz-adv-x="442" 
d="M401 258q0 -177 -160 -245q-13 -6 -32.5 -9.5t-50.5 -3.5h-32l-48 -3h-10q-26 0 -26 14q0 5 4 17t4 17v380q0 5 -9 9t-9 9l-2 2q0 8 9 15t17 7l60 -2l32 2h18q98 0 161 -47q74 -55 74 -162zM313 236v20q0 75 -35 126q-42 61 -120 61h-6q-13 -1 -19.5 -21t-6.5 -39
l-2 -175q0 -30 2 -96t2 -67q0 -26 30 -26q25 0 58 14q50 17 76 80q21 52 21 123z" />
    <glyph glyph-name="e" unicode="e" horiz-adv-x="306" 
d="M271 57l-2 -4l-34 -40q-9 -8 -28 -8q-29 -3 -67.5 -4t-41.5 -1l-58 1q-16 0 -16 16l2 10l-2 74v282l2 64q3 14 7 16q9 6 25 6q53 0 111.5 -0.5t87.5 -5.5q5 0 8.5 -9.5t3.5 -18.5q0 -2 -1 -5q0 -1 -1 -3q-41 6 -80.5 11t-54.5 5h-6q-16 0 -16 -14q-2 -14 -3 -46t-1 -63
q0 -9 0.5 -17.5t11.5 -10.5q23 0 50 0.5t45 5.5l14 2q8 0 8 -8v-12l-2 -22q0 -2 -2 -4l-2 -2q-3 2 -5 3q-6 3 -13 3q-12 0 -37 3t-34 3h-16q-15 -3 -16 -4q-2 -1 -2 -10q0 -18 -2 -68.5t-2 -54.5l2 -68q0 -28 22 -28l10 2q30 4 61 13t58 17h6q3 0 7 -3q1 -2 3 -3z" />
    <glyph glyph-name="f" unicode="f" horiz-adv-x="220" 
d="M270 435q0 -2 -1 -5q0 -1 -1 -3q-41 6 -80.5 11t-54.5 5h-6q-16 0 -16 -14q-2 -14 -3 -46t-1 -63q0 -9 0.5 -17.5t11.5 -10.5q23 0 50 0.5t45 5.5l14 2q8 0 8 -8v-12l-2 -22q0 -2 -2 -4l-2 -2q-3 2 -5 3q-6 3 -13 3q-12 0 -37 3t-34 3h-16q-15 -3 -16 -4q-2 -1 -2 -10
q0 -18 -2 -72t-2 -61l2 -80q0 -34 -12 -36l-22 -1l-30 1q-16 0 -16 16l2 10l-2 74v282l2 64q3 14 7 16q9 6 25 6q53 0 111.5 -0.5t87.5 -5.5q5 0 8.5 -9.5t3.5 -18.5z" />
    <glyph glyph-name="g" unicode="g" horiz-adv-x="533" 
d="M480 214v-31.5v-15.5v-15v-13q0 -41 -8 -96q-1 -15 -9.5 -23t-24.5 -15q-14 -4 -26 -5t-28 -1h-34q-127 0 -214 58q-95 63 -95 167l2 12q0 83 78 152q66 58 137 73q30 6 72 6q47 0 100 -10q7 0 16 -11q6 -7 6 -13l-6 -10q-3 -2 -4 -2q-5 -2 -8 -2l-8 4q-36 24 -90 24
q-31 0 -68 -10q-68 -20 -102.5 -73.5t-34.5 -123.5l2 -6q0 -74 68.5 -139.5t146.5 -65.5l20 2q14 0 28 4.5t14 9.5v20q0 34 -9 110q-5 42 -5 67l-2 2q0 4 6 8t12 6l20 4q20 0 32 -12q16 -13 16 -32v-4z" />
    <glyph glyph-name="h" unicode="h" horiz-adv-x="544" 
d="M485 31q0 -10 -3.5 -17.5t-12.5 -8.5l-22 -2l-18 2q-5 1 -8 6t-6 20q0 45 -5 111t-5 104l-287 -4v-117l2 -74v-14q0 -15 -3.5 -23.5t-14.5 -8.5l-34 -4l-16 4q-12 4 -12 18l2 8v80q0 49 -3 141t-3 139l2 58q0 20 6 20h17q7 0 15.5 1t13.5 1t10.5 -5.5t5.5 -10.5
q5 -31 7 -94.5t5 -96.5l287 10l-2 56l2 131q0 10 14 10q11 -2 20.5 -2h19.5q8 -1 12 -9.5t4 -18.5q0 -58 3 -136q7 -183 7 -240v-34z" />
    <glyph glyph-name="i" unicode="i" horiz-adv-x="159" 
d="M122 238q0 -44 -1 -67q-5 -116 -5 -126l2 -30q0 -14 -10 -15l-28 -3h-14q-8 1 -12 9.5t-4 18.5v303q0 28 1.5 63.5t2.5 57.5q0 12 12 12l22 -2h16q10 0 10 -4q0 -43 2 -83q6 -118 6 -134z" />
    <glyph glyph-name="j" unicode="j" horiz-adv-x="340" 
d="M288 129q0 -46 -21.5 -73.5t-60.5 -40.5q-39 -15 -73 -15q-37 0 -74 23q-30 18 -30 56l4 28q12 41 52 58q7 5 16.5 7t17.5 2q16 0 23 -2t11 -6t4 -9q0 -6 -14 -10.5t-25.5 -18t-14.5 -31.5l-2 -18q0 -15 10 -28q16 -22 42 -22l29 6q23 9 31 37q5 19 5 57v326q0 12 14 16
l42 2q14 -2 14 -24v-320z" />
    <glyph glyph-name="k" unicode="k" horiz-adv-x="339" 
d="M308 13q-6 -9 -16.5 -13.5t-29.5 -4.5q-57 0 -78 120q-11 83 -15.5 118t-17.5 56t-28 21q-16 0 -16 -58q0 -37 1 -64q5 -133 5 -177q0 -7 -6 -10q-4 -2 -12 -4h-52q-8 0 -10 1l-2 2l2 9v74l2 326v52q0 2 13.5 4t26.5 2q10 0 19 -1t17 -3l2 -48l-2 -52q0 -3 3 -7
q1 -2 3 -3l6 4q12 16 65 63q38 33 56 49l38 -2l4 -4q4 -5 4 -8q-18 -17 -64 -54q-75 -60 -75 -63q1 -3 13 -10q29 -16 36 -32q12 -21 20 -54q7 -38 10 -54q10 -83 15.5 -126t28.5 -43l22 12q12 0 12 -14v-4z" />
    <glyph glyph-name="l" unicode="l" horiz-adv-x="434" 
d="M397 103q0 -10 -7 -30.5t-20.5 -29.5t-26.5 -18q-9 -9 -36 -20q-4 -1 -12 -4l-239 -1q-14 0 -20 11l-2 4q4 10 4 16l-2 414q0 24 20 24q9 1 20.5 2.5t25.5 1.5q7 -1 9 -10q1 -4 1 -18v-390l-2 -14q0 -10 8 -10q15 0 40 -3t35 -3q24 0 44.5 4t46 14.5t39.5 19.5t35.5 28.5
t30.5 19.5q8 0 8 -8z" />
    <glyph glyph-name="m" unicode="m" horiz-adv-x="577" 
d="M527 25q0 -15 -12 -20q-4 -3 -11.5 -4t-11.5 -1q-14 0 -22 5q-12 5 -12 28q0 56 1 144t3 194q0 3 -3 5q-2 0 -3 1q-10 -6 -14 -8q-41 -46 -94 -115q-43 -55 -90 -121l-8 -6q-5 0 -11 5t-13 11q-71 88 -141 177h-4q-8 -6 -8 -8l-2 -96v-179q0 -17 -3 -27t-15 -10
q-7 0 -10.5 8t-3.5 19l2 390l-2 12q0 25 12 34l16 4q14 0 22 -14q18 -24 70 -96q62 -86 87 -115q8 -9 11 -12q6 -6 9 -6l8 6q59 72 87 107q35 44 81 104q11 13 25.5 18.5t33.5 5.5q11 0 15.5 -11t4.5 -25z" />
    <glyph glyph-name="n" unicode="n" horiz-adv-x="419" 
d="M384 451l-2 -446q0 -10 -12 -10l-12 8q-46 59 -109.5 148.5t-98.5 139.5q-45 64 -49 68l-6 2q-6 -4 -6 -8v-334q0 -18 -8 -19h-8l-18 1l-4 -1q-2 8 -2 17v197l-2 120l2 125q0 10 12 10h12q15 0 26 -2.5t14 -7.5l221 -316l2 -2q10 0 10 16v294q0 11 10 14h6l16 -2
q3 -1 5 -8q0 -1 1 -4z" />
    <glyph glyph-name="o" unicode="o" horiz-adv-x="565" 
d="M534 240q-7 -31 -13 -62q-23 -71 -71 -116q-67 -63 -173 -63h-6q-108 0 -173.5 66.5t-65.5 168.5q0 97 74 167t187 70t179 -67q62 -63 62 -164zM467 240q0 85 -45 139q-49 58 -133 58h-4q-92 0 -143 -65q-42 -54 -42 -122q0 -109 71 -171q55 -48 112 -48q75 0 129.5 62.5
t54.5 146.5z" />
    <glyph glyph-name="p" unicode="p" horiz-adv-x="339" 
d="M218 246q-27 -12 -50 -12l-19 2q-5 0 -10 2q-1 0 -4 2q3 4 5 5q6 5 11 5q20 2 23 3q7 2 22 9q22 15 28 35.5t6 53.5q0 35 -14 60.5t-44 35.5q-16 4 -31 8q-10 0 -14 -4q-14 -9 -14 -18l-2 -78l2 -194q0 -32 -1 -75t-1 -51q0 -16 -2 -24t-10 -8l-36 -2l-18 2q-8 0 -8 16
l2 24l2 279v123q0 2 -7 6t-7 8q0 6 6 8t8 2h88q16 0 31 -0.5t30 -3.5q55 -15 86 -42q36 -31 36 -76q0 -26 -35 -58q-15 -13 -59 -43z" />
    <glyph glyph-name="q" unicode="q" horiz-adv-x="567" 
d="M677 -67q-1 -3 -1 -4q-2 -5 -5 -8q-22 -28 -34 -28l-42 -4q-21 0 -40 8q-35 15 -64 53q-39 51 -57 65l-24 22q-54 -38 -140 -38q-111 0 -178 66t-67 169q0 97 74.5 167t188.5 70q112 0 177 -67q62 -64 62 -164q-6 -39 -13 -62q-23 -71 -72 -117l20 -22q32 -38 47 -54
q26 -28 56 -42q18 -8 32.5 -11t35.5 -3q9 0 24 3t16 3zM460 240q0 85 -45 139q-48 58 -131 58q-95 0 -148 -65q-43 -53 -43 -122q0 -109 71 -171q55 -48 114 -48q58 0 98 34l-14 8q-5 2 -16 3t-18 1h-32q-5 0 -13 2.5t-11 3.5q-16 9 -20 14l-4 12l-2 4q0 10 22 10
q15 0 34 -3t32 -5q17 0 32.5 -4t37.5 -20q27 30 41.5 68t14.5 81z" />
    <glyph glyph-name="r" unicode="r" horiz-adv-x="367" 
d="M343 37l-4 -14q-6 -11 -21 -18.5t-35 -7.5q-58 0 -76 92q-8 98 -10 109q-6 28 -20 43t-33 19q-7 0 -10 3q-1 1 -2 3l4 6q27 9 45 30q22 26 22 63q0 32 -19 53t-48 21h-18q-12 0 -12 -10q0 -58 1 -226t1 -186q0 -15 -14 -17h-46q-6 1 -6 15l2 436q0 16 20 16
q11 1 29.5 1.5t22.5 0.5h10q63 0 96 -26t33 -72q0 -31 -11 -51t-35 -36q-4 -3 -9 -7l-5 -5l3 -3q5 -4 9 -5q46 -22 49.5 -129.5t40.5 -107.5q7 0 14.5 3.5t15.5 10.5q1 1 8 2q3 -1 4 -1q4 -2 4 -5z" />
    <glyph glyph-name="s" unicode="s" horiz-adv-x="362" 
d="M321 445q-4 -14 -6 -22q0 -6 -5 -10t-11 -4q-2 0 -18 8q-17 14 -23 18q-10 8 -21 8h-12q-25 -4 -39.5 -20t-14.5 -36l2 -4q3 -32 10 -50t26 -45q23 -37 47 -73q27 -48 27 -84q0 -10 -3 -21.5t-5 -18.5q-35 -85 -129 -94h-40q-29 0 -45.5 5t-26.5 25q-5 9 -10.5 20
t-5.5 18l4 14q6 11 9 15q5 6 15 9h4q14 0 14 -20v-6l2 -4q0 -34 19 -46q13 -8 43 -8l2 -2q34 0 58.5 26.5t24.5 63.5q0 36 -43 100q-28 43 -38 63q-20 46 -21 50q-5 16 -5 29q0 7 1 12q1 7 7 24q15 40 47 58q23 13 72 22l32 2l26 -2q14 -2 16 -3q8 -3 12 -9z" />
    <glyph glyph-name="t" unicode="t" horiz-adv-x="480" 
d="M446 423q0 -1 -1 -10.5t-1 -21.5q0 -3 -5.5 -7.5t-10.5 -4.5l-10 6q-22 36 -36 46q-24 16 -76 16q-15 0 -19 -4q-3 -4 -4.5 -15t-3 -41.5t-1.5 -48.5q0 -55 4 -172t4 -151q0 -12 -18 -16h-16q-6 3 -16.5 5t-13.5 19q0 13 -2 65t-2 86v259q0 8 -12 8h-14q-67 -7 -91 -28
q-9 -8 -36 -56q-7 -14 -20 -14q-16 0 -16 14l2 6q8 41 10 47q1 3 20 41q4 8 19 13t31 5l289 2q16 0 23.5 -2.5t12.5 -13.5q10 -23 10 -32z" />
    <glyph glyph-name="u" unicode="u" horiz-adv-x="453" 
d="M403 443l-2 -34v-62q0 -71 -5 -112q-8 -62 -31.5 -119.5t-61 -88t-92.5 -30.5h-6q-64 0 -112 33t-53.5 79.5t-8.5 88.5t-3 74q0 26 2 93.5t2 79.5q0 16 8 19t28 3h32q14 0 14 -24q0 -67 -2 -122q-6 -165 -6 -188q0 -41 32.5 -73.5t76.5 -32.5l6 -2q40 0 69 27t44.5 80.5
t22 111.5t6.5 131v74q0 13 8 16l12 2q8 0 12 -4q8 -8 8 -20z" />
    <glyph glyph-name="v" unicode="v" horiz-adv-x="544" 
d="M508 451l-4 -14q-59 -108 -121 -211.5t-122 -204.5q-5 -9 -9 -18q-7 -10 -15 -10q-11 0 -15 12t-7 24q-33 74 -64.5 145t-60 138t-52.5 131l-2 8q0 7 2 11q3 7 8 7l58 -2q9 -1 13 -9q4 -13 7 -21l143 -356q25 44 70 120l70 118q28 48 68 126q11 22 16 22h4q13 0 13 -16z
" />
    <glyph glyph-name="w" unicode="w" horiz-adv-x="678" 
d="M641 465q-25 -52 -58.5 -115.5t-59.5 -113.5q-16 -31 -55 -117q-56 -123 -68 -124l-2 2q-7 0 -28 47t-28 47q-4 -1 -14 -23q-26 -59 -34 -69l-8 -4q-15 0 -24 18q-39 60 -85 151q-28 55 -77 162q-35 77 -63 139q7 2 15.5 4t18.5 2q19 0 29.5 -1.5t12.5 -4.5
q7 -13 87 -190q55 -121 84 -158q2 2 13.5 19t16.5 25q-56 125 -86 199t-30 98q0 6 10 9.5t26 3.5q30 0 37.5 -8t33.5 -82q30 -85 55 -129q61 107 122 215q8 2 12 2l33 -2q-12 -29 -24 -52q-2 -3 -45 -79l-74 -146q9 -16 14 -31.5t20 -25.5q42 82 66 129q58 112 109 207l18 2
q11 0 23 -3q2 0 7 -3z" />
    <glyph glyph-name="x" unicode="x" horiz-adv-x="385" 
d="M335 -3q-8 -2 -17 -3t-17 -1q-10 2 -26 2l-2 2q-6 0 -47 90.5t-45 90.5q-6 -1 -50 -74t-57 -101q-3 -4 -12 -4h-22l-12 2q2 2 62 102t68 115q-46 101 -71 162t-25 81q0 4 8 6t20 2q28 0 32 -4q1 -1 38 -95q17 -42 35 -78q13 17 49 84t53 91q10 2 14 2h22
q-12 -30 -26.5 -57.5t-29.5 -54.5q-19 -32 -37.5 -70.5t-22.5 -46.5q36 -80 64 -138q24 -50 54 -105z" />
    <glyph glyph-name="y" unicode="y" horiz-adv-x="430" 
d="M389 463q-2 -4 -97 -145q-39 -58 -41 -76q4 -56 5 -88q5 -97 5 -143l-2 -6l-2 -4l-32 -2l-30 2q-3 1 -6.5 26t-5.5 109t-4 96q0 2 -80.5 109.5t-80.5 117.5l2 2l32 2q16 0 18 -2q10 -7 41 -51q95 -135 98 -138q40 61 61 91q62 91 71 100q4 4 18 4q12 0 19 -1t11 -3z" />
    <glyph glyph-name="z" unicode="z" horiz-adv-x="419" 
d="M376 445q0 -28 -1.5 -47.5t-6.5 -26.5q-64 -87 -104 -142q-75 -103 -123 -174l-2 -6q0 -12 12 -12h197q10 0 10 -12l2 -20v-5q-2 -4 -5 -6q-2 0 -3 -1q-63 0 -186.5 2t-128.5 2q-6 0 -6 12q0 14 4 18q42 62 113 161q40 56 105 143q48 65 53 74v8q-2 8 -4 8h-44l-125 -2
l-28 2q-14 0 -14 12q0 6 -8 10t-8 8l2 2l-2 4q0 6 12 6l48 -2l63 2h170q8 0 8 -18z" />
    <glyph glyph-name="braceleft" unicode="{" horiz-adv-x="253" 
d="M235 -171q-83 0 -113 19q-41 26 -41 106v227q0 40 -17.5 61.5t-57.5 29.5q75 20 75 90v189q0 67 45 92q35 19 108 19q-75 -15 -75 -99v-148q0 -76 -12 -101.5t-54 -38.5l-12 -3q45 -14 61.5 -37.5t16.5 -75.5v-233q0 -75 76 -97z" />
    <glyph glyph-name="bar" unicode="|" horiz-adv-x="238" 
d="M148 -196h-69v858h69v-858z" />
    <glyph glyph-name="braceright" unicode="}" horiz-adv-x="247" 
d="M235 272q-40 -8 -57 -29t-17 -62v-227q0 -76 -40 -103q-33 -22 -115 -22q77 21 77 97v233q0 53 16 76.5t62 36.5l-12 3q-42 13 -54 38.5t-12 101.5v148q0 84 -76 99q76 0 108 -17q46 -24 46 -94v-189q0 -70 74 -90z" />
    <glyph glyph-name="asciitilde" unicode="~" horiz-adv-x="588" 
d="M508 364q-41 -95 -120 -95q-31 0 -71 22q-88 48 -116 48q-25 0 -40 -14t-44 -67l-36 37q48 93 119 93q32 0 74 -21q96 -48 112 -48q25 0 42 16t46 66z" />
    <glyph glyph-name="nonbreakingspace" unicode="&#xa0;" horiz-adv-x="500" 
 />
    <glyph glyph-name="exclamdown" unicode="&#xa1;" 
d="M266 286q0 -40 -28 -68t-68 -28t-68 28t-28 68q0 39 28 67t68 28q39 0 67.5 -27.5t28.5 -67.5z" />
    <glyph glyph-name="cent" unicode="&#xa2;" 
d="M266 286q0 -40 -28 -68t-68 -28t-68 28t-28 68q0 39 28 67t68 28q39 0 67.5 -27.5t28.5 -67.5z" />
    <glyph glyph-name="sterling" unicode="&#xa3;" 
d="M266 286q0 -40 -28 -68t-68 -28t-68 28t-28 68q0 39 28 67t68 28q39 0 67.5 -27.5t28.5 -67.5z" />
    <glyph glyph-name="currency" unicode="&#xa4;" 
d="M266 286q0 -40 -28 -68t-68 -28t-68 28t-28 68q0 39 28 67t68 28q39 0 67.5 -27.5t28.5 -67.5z" />
    <glyph glyph-name="yen" unicode="&#xa5;" 
d="M266 286q0 -40 -28 -68t-68 -28t-68 28t-28 68q0 39 28 67t68 28q39 0 67.5 -27.5t28.5 -67.5z" />
    <glyph glyph-name="brokenbar" unicode="&#xa6;" horiz-adv-x="238" 
d="M166 298l-69 -33v397h69v-364zM166 -196h-69v396l69 34v-430z" />
    <glyph glyph-name="section" unicode="&#xa7;" 
d="M266 286q0 -40 -28 -68t-68 -28t-68 28t-28 68q0 39 28 67t68 28q39 0 67.5 -27.5t28.5 -67.5z" />
    <glyph glyph-name="dieresis" unicode="&#xa8;" 
d="M266 286q0 -40 -28 -68t-68 -28t-68 28t-28 68q0 39 28 67t68 28q39 0 67.5 -27.5t28.5 -67.5z" />
    <glyph glyph-name="copyright" unicode="&#xa9;" 
d="M266 286q0 -40 -28 -68t-68 -28t-68 28t-28 68q0 39 28 67t68 28q39 0 67.5 -27.5t28.5 -67.5z" />
    <glyph glyph-name="ordfeminine" unicode="&#xaa;" 
d="M266 286q0 -40 -28 -68t-68 -28t-68 28t-28 68q0 39 28 67t68 28q39 0 67.5 -27.5t28.5 -67.5z" />
    <glyph glyph-name="guillemotleft" unicode="&#xab;" 
d="M266 286q0 -40 -28 -68t-68 -28t-68 28t-28 68q0 39 28 67t68 28q39 0 67.5 -27.5t28.5 -67.5z" />
    <glyph glyph-name="logicalnot" unicode="&#xac;" 
d="M266 286q0 -40 -28 -68t-68 -28t-68 28t-28 68q0 39 28 67t68 28q39 0 67.5 -27.5t28.5 -67.5z" />
    <glyph glyph-name="minus" unicode="&#xad;" 
d="M266 286q0 -40 -28 -68t-68 -28t-68 28t-28 68q0 39 28 67t68 28q39 0 67.5 -27.5t28.5 -67.5z" />
    <glyph glyph-name="registered" unicode="&#xae;" 
d="M266 286q0 -40 -28 -68t-68 -28t-68 28t-28 68q0 39 28 67t68 28q39 0 67.5 -27.5t28.5 -67.5z" />
    <glyph glyph-name="macron" unicode="&#xaf;" 
d="M266 286q0 -40 -28 -68t-68 -28t-68 28t-28 68q0 39 28 67t68 28q39 0 67.5 -27.5t28.5 -67.5z" />
    <glyph glyph-name="degree" unicode="&#xb0;" 
d="M266 286q0 -40 -28 -68t-68 -28t-68 28t-28 68q0 39 28 67t68 28q39 0 67.5 -27.5t28.5 -67.5z" />
    <glyph glyph-name="plusminus" unicode="&#xb1;" 
d="M266 286q0 -40 -28 -68t-68 -28t-68 28t-28 68q0 39 28 67t68 28q39 0 67.5 -27.5t28.5 -67.5z" />
    <glyph glyph-name="twosuperior" unicode="&#xb2;" 
d="M266 286q0 -40 -28 -68t-68 -28t-68 28t-28 68q0 39 28 67t68 28q39 0 67.5 -27.5t28.5 -67.5z" />
    <glyph glyph-name="threesuperior" unicode="&#xb3;" 
d="M266 286q0 -40 -28 -68t-68 -28t-68 28t-28 68q0 39 28 67t68 28q39 0 67.5 -27.5t28.5 -67.5z" />
    <glyph glyph-name="acute" unicode="&#xb4;" 
d="M266 286q0 -40 -28 -68t-68 -28t-68 28t-28 68q0 39 28 67t68 28q39 0 67.5 -27.5t28.5 -67.5z" />
    <glyph glyph-name="mu" unicode="&#xb5;" 
d="M266 286q0 -40 -28 -68t-68 -28t-68 28t-28 68q0 39 28 67t68 28q39 0 67.5 -27.5t28.5 -67.5z" />
    <glyph glyph-name="paragraph" unicode="&#xb6;" horiz-adv-x="497" 
d="M470 -65h-281v30q38 0 48 12t10 52v284l-31 -1q-89 0 -138.5 45.5t-49.5 129.5q0 61 25 103t70 58q30 10 49 12t83 2h215v-30h-8q-33 0 -41.5 -11.5t-8.5 -54.5v-537q0 -44 11 -54t47 -10v-30zM360 -35v667h-63v-667h63z" />
    <glyph glyph-name="periodcentered" unicode="&#xb7;" horiz-adv-x="273" 
d="M193 234q0 -24 -16.5 -40.5t-40.5 -16.5q-23 0 -39 16t-16 41q0 24 16 40t39 16q24 0 40.5 -16.5t16.5 -39.5z" />
    <glyph glyph-name="periodcentered" unicode="&#x2219;" horiz-adv-x="273" 
d="M193 234q0 -24 -16.5 -40.5t-40.5 -16.5q-23 0 -39 16t-16 41q0 24 16 40t39 16q24 0 40.5 -16.5t16.5 -39.5z" />
    <glyph glyph-name="cedilla" unicode="&#xb8;" 
d="M266 286q0 -40 -28 -68t-68 -28t-68 28t-28 68q0 39 28 67t68 28q39 0 67.5 -27.5t28.5 -67.5z" />
    <glyph glyph-name="onesuperior" unicode="&#xb9;" 
d="M266 286q0 -40 -28 -68t-68 -28t-68 28t-28 68q0 39 28 67t68 28q39 0 67.5 -27.5t28.5 -67.5z" />
    <glyph glyph-name="ordmasculine" unicode="&#xba;" 
d="M266 286q0 -40 -28 -68t-68 -28t-68 28t-28 68q0 39 28 67t68 28q39 0 67.5 -27.5t28.5 -67.5z" />
    <glyph glyph-name="guillemotright" unicode="&#xbb;" 
d="M266 286q0 -40 -28 -68t-68 -28t-68 28t-28 68q0 39 28 67t68 28q39 0 67.5 -27.5t28.5 -67.5z" />
    <glyph glyph-name="onequarter" unicode="&#xbc;" 
d="M266 286q0 -40 -28 -68t-68 -28t-68 28t-28 68q0 39 28 67t68 28q39 0 67.5 -27.5t28.5 -67.5z" />
    <glyph glyph-name="onehalf" unicode="&#xbd;" 
d="M266 286q0 -40 -28 -68t-68 -28t-68 28t-28 68q0 39 28 67t68 28q39 0 67.5 -27.5t28.5 -67.5z" />
    <glyph glyph-name="threequarters" unicode="&#xbe;" 
d="M266 286q0 -40 -28 -68t-68 -28t-68 28t-28 68q0 39 28 67t68 28q39 0 67.5 -27.5t28.5 -67.5z" />
    <glyph glyph-name="questiondown" unicode="&#xbf;" 
d="M266 286q0 -40 -28 -68t-68 -28t-68 28t-28 68q0 39 28 67t68 28q39 0 67.5 -27.5t28.5 -67.5z" />
    <glyph glyph-name="Agrave" unicode="&#xc0;" 
d="M266 286q0 -40 -28 -68t-68 -28t-68 28t-28 68q0 39 28 67t68 28q39 0 67.5 -27.5t28.5 -67.5z" />
    <glyph glyph-name="Aacute" unicode="&#xc1;" 
d="M266 286q0 -40 -28 -68t-68 -28t-68 28t-28 68q0 39 28 67t68 28q39 0 67.5 -27.5t28.5 -67.5z" />
    <glyph glyph-name="Acircumflex" unicode="&#xc2;" 
d="M266 286q0 -40 -28 -68t-68 -28t-68 28t-28 68q0 39 28 67t68 28q39 0 67.5 -27.5t28.5 -67.5z" />
    <glyph glyph-name="Atilde" unicode="&#xc3;" 
d="M266 286q0 -40 -28 -68t-68 -28t-68 28t-28 68q0 39 28 67t68 28q39 0 67.5 -27.5t28.5 -67.5z" />
    <glyph glyph-name="Adieresis" unicode="&#xc4;" 
d="M266 286q0 -40 -28 -68t-68 -28t-68 28t-28 68q0 39 28 67t68 28q39 0 67.5 -27.5t28.5 -67.5z" />
    <glyph glyph-name="Aring" unicode="&#xc5;" 
d="M266 286q0 -40 -28 -68t-68 -28t-68 28t-28 68q0 39 28 67t68 28q39 0 67.5 -27.5t28.5 -67.5z" />
    <glyph glyph-name="AE" unicode="&#xc6;" 
d="M266 286q0 -40 -28 -68t-68 -28t-68 28t-28 68q0 39 28 67t68 28q39 0 67.5 -27.5t28.5 -67.5z" />
    <glyph glyph-name="Ccedilla" unicode="&#xc7;" 
d="M266 286q0 -40 -28 -68t-68 -28t-68 28t-28 68q0 39 28 67t68 28q39 0 67.5 -27.5t28.5 -67.5z" />
    <glyph glyph-name="Egrave" unicode="&#xc8;" 
d="M266 286q0 -40 -28 -68t-68 -28t-68 28t-28 68q0 39 28 67t68 28q39 0 67.5 -27.5t28.5 -67.5z" />
    <glyph glyph-name="Eacute" unicode="&#xc9;" 
d="M266 286q0 -40 -28 -68t-68 -28t-68 28t-28 68q0 39 28 67t68 28q39 0 67.5 -27.5t28.5 -67.5z" />
    <glyph glyph-name="Ecircumflex" unicode="&#xca;" 
d="M266 286q0 -40 -28 -68t-68 -28t-68 28t-28 68q0 39 28 67t68 28q39 0 67.5 -27.5t28.5 -67.5z" />
    <glyph glyph-name="Edieresis" unicode="&#xcb;" 
d="M266 286q0 -40 -28 -68t-68 -28t-68 28t-28 68q0 39 28 67t68 28q39 0 67.5 -27.5t28.5 -67.5z" />
    <glyph glyph-name="Igrave" unicode="&#xcc;" 
d="M266 286q0 -40 -28 -68t-68 -28t-68 28t-28 68q0 39 28 67t68 28q39 0 67.5 -27.5t28.5 -67.5z" />
    <glyph glyph-name="Iacute" unicode="&#xcd;" 
d="M266 286q0 -40 -28 -68t-68 -28t-68 28t-28 68q0 39 28 67t68 28q39 0 67.5 -27.5t28.5 -67.5z" />
    <glyph glyph-name="Icircumflex" unicode="&#xce;" 
d="M266 286q0 -40 -28 -68t-68 -28t-68 28t-28 68q0 39 28 67t68 28q39 0 67.5 -27.5t28.5 -67.5z" />
    <glyph glyph-name="Idieresis" unicode="&#xcf;" 
d="M266 286q0 -40 -28 -68t-68 -28t-68 28t-28 68q0 39 28 67t68 28q39 0 67.5 -27.5t28.5 -67.5z" />
    <glyph glyph-name="Eth" unicode="&#xd0;" 
d="M266 286q0 -40 -28 -68t-68 -28t-68 28t-28 68q0 39 28 67t68 28q39 0 67.5 -27.5t28.5 -67.5z" />
    <glyph glyph-name="Ntilde" unicode="&#xd1;" 
d="M266 286q0 -40 -28 -68t-68 -28t-68 28t-28 68q0 39 28 67t68 28q39 0 67.5 -27.5t28.5 -67.5z" />
    <glyph glyph-name="Ograve" unicode="&#xd2;" 
d="M266 286q0 -40 -28 -68t-68 -28t-68 28t-28 68q0 39 28 67t68 28q39 0 67.5 -27.5t28.5 -67.5z" />
    <glyph glyph-name="Oacute" unicode="&#xd3;" 
d="M266 286q0 -40 -28 -68t-68 -28t-68 28t-28 68q0 39 28 67t68 28q39 0 67.5 -27.5t28.5 -67.5z" />
    <glyph glyph-name="Ocircumflex" unicode="&#xd4;" 
d="M266 286q0 -40 -28 -68t-68 -28t-68 28t-28 68q0 39 28 67t68 28q39 0 67.5 -27.5t28.5 -67.5z" />
    <glyph glyph-name="Otilde" unicode="&#xd5;" 
d="M266 286q0 -40 -28 -68t-68 -28t-68 28t-28 68q0 39 28 67t68 28q39 0 67.5 -27.5t28.5 -67.5z" />
    <glyph glyph-name="Odieresis" unicode="&#xd6;" 
d="M266 286q0 -40 -28 -68t-68 -28t-68 28t-28 68q0 39 28 67t68 28q39 0 67.5 -27.5t28.5 -67.5z" />
    <glyph glyph-name="multiply" unicode="&#xd7;" 
d="M266 286q0 -40 -28 -68t-68 -28t-68 28t-28 68q0 39 28 67t68 28q39 0 67.5 -27.5t28.5 -67.5z" />
    <glyph glyph-name="Oslash" unicode="&#xd8;" 
d="M266 286q0 -40 -28 -68t-68 -28t-68 28t-28 68q0 39 28 67t68 28q39 0 67.5 -27.5t28.5 -67.5z" />
    <glyph glyph-name="Ugrave" unicode="&#xd9;" 
d="M266 286q0 -40 -28 -68t-68 -28t-68 28t-28 68q0 39 28 67t68 28q39 0 67.5 -27.5t28.5 -67.5z" />
    <glyph glyph-name="Uacute" unicode="&#xda;" 
d="M266 286q0 -40 -28 -68t-68 -28t-68 28t-28 68q0 39 28 67t68 28q39 0 67.5 -27.5t28.5 -67.5z" />
    <glyph glyph-name="Ucircumflex" unicode="&#xdb;" 
d="M266 286q0 -40 -28 -68t-68 -28t-68 28t-28 68q0 39 28 67t68 28q39 0 67.5 -27.5t28.5 -67.5z" />
    <glyph glyph-name="Udieresis" unicode="&#xdc;" 
d="M266 286q0 -40 -28 -68t-68 -28t-68 28t-28 68q0 39 28 67t68 28q39 0 67.5 -27.5t28.5 -67.5z" />
    <glyph glyph-name="Yacute" unicode="&#xdd;" 
d="M266 286q0 -40 -28 -68t-68 -28t-68 28t-28 68q0 39 28 67t68 28q39 0 67.5 -27.5t28.5 -67.5z" />
    <glyph glyph-name="Thorn" unicode="&#xde;" 
d="M266 286q0 -40 -28 -68t-68 -28t-68 28t-28 68q0 39 28 67t68 28q39 0 67.5 -27.5t28.5 -67.5z" />
    <glyph glyph-name="germandbls" unicode="&#xdf;" 
d="M266 286q0 -40 -28 -68t-68 -28t-68 28t-28 68q0 39 28 67t68 28q39 0 67.5 -27.5t28.5 -67.5z" />
    <glyph glyph-name="agrave" unicode="&#xe0;" 
d="M266 286q0 -40 -28 -68t-68 -28t-68 28t-28 68q0 39 28 67t68 28q39 0 67.5 -27.5t28.5 -67.5z" />
    <glyph glyph-name="aacute" unicode="&#xe1;" 
d="M266 286q0 -40 -28 -68t-68 -28t-68 28t-28 68q0 39 28 67t68 28q39 0 67.5 -27.5t28.5 -67.5z" />
    <glyph glyph-name="acircumflex" unicode="&#xe2;" 
d="M266 286q0 -40 -28 -68t-68 -28t-68 28t-28 68q0 39 28 67t68 28q39 0 67.5 -27.5t28.5 -67.5z" />
    <glyph glyph-name="atilde" unicode="&#xe3;" 
d="M266 286q0 -40 -28 -68t-68 -28t-68 28t-28 68q0 39 28 67t68 28q39 0 67.5 -27.5t28.5 -67.5z" />
    <glyph glyph-name="adieresis" unicode="&#xe4;" 
d="M266 286q0 -40 -28 -68t-68 -28t-68 28t-28 68q0 39 28 67t68 28q39 0 67.5 -27.5t28.5 -67.5z" />
    <glyph glyph-name="aring" unicode="&#xe5;" 
d="M266 286q0 -40 -28 -68t-68 -28t-68 28t-28 68q0 39 28 67t68 28q39 0 67.5 -27.5t28.5 -67.5z" />
    <glyph glyph-name="ae" unicode="&#xe6;" 
d="M266 286q0 -40 -28 -68t-68 -28t-68 28t-28 68q0 39 28 67t68 28q39 0 67.5 -27.5t28.5 -67.5z" />
    <glyph glyph-name="ccedilla" unicode="&#xe7;" 
d="M266 286q0 -40 -28 -68t-68 -28t-68 28t-28 68q0 39 28 67t68 28q39 0 67.5 -27.5t28.5 -67.5z" />
    <glyph glyph-name="egrave" unicode="&#xe8;" 
d="M266 286q0 -40 -28 -68t-68 -28t-68 28t-28 68q0 39 28 67t68 28q39 0 67.5 -27.5t28.5 -67.5z" />
    <glyph glyph-name="eacute" unicode="&#xe9;" 
d="M266 286q0 -40 -28 -68t-68 -28t-68 28t-28 68q0 39 28 67t68 28q39 0 67.5 -27.5t28.5 -67.5z" />
    <glyph glyph-name="ecircumflex" unicode="&#xea;" 
d="M266 286q0 -40 -28 -68t-68 -28t-68 28t-28 68q0 39 28 67t68 28q39 0 67.5 -27.5t28.5 -67.5z" />
    <glyph glyph-name="edieresis" unicode="&#xeb;" 
d="M266 286q0 -40 -28 -68t-68 -28t-68 28t-28 68q0 39 28 67t68 28q39 0 67.5 -27.5t28.5 -67.5z" />
    <glyph glyph-name="igrave" unicode="&#xec;" 
d="M266 286q0 -40 -28 -68t-68 -28t-68 28t-28 68q0 39 28 67t68 28q39 0 67.5 -27.5t28.5 -67.5z" />
    <glyph glyph-name="iacute" unicode="&#xed;" 
d="M266 286q0 -40 -28 -68t-68 -28t-68 28t-28 68q0 39 28 67t68 28q39 0 67.5 -27.5t28.5 -67.5z" />
    <glyph glyph-name="icircumflex" unicode="&#xee;" 
d="M266 286q0 -40 -28 -68t-68 -28t-68 28t-28 68q0 39 28 67t68 28q39 0 67.5 -27.5t28.5 -67.5z" />
    <glyph glyph-name="idieresis" unicode="&#xef;" 
d="M266 286q0 -40 -28 -68t-68 -28t-68 28t-28 68q0 39 28 67t68 28q39 0 67.5 -27.5t28.5 -67.5z" />
    <glyph glyph-name="eth" unicode="&#xf0;" 
d="M266 286q0 -40 -28 -68t-68 -28t-68 28t-28 68q0 39 28 67t68 28q39 0 67.5 -27.5t28.5 -67.5z" />
    <glyph glyph-name="ntilde" unicode="&#xf1;" 
d="M266 286q0 -40 -28 -68t-68 -28t-68 28t-28 68q0 39 28 67t68 28q39 0 67.5 -27.5t28.5 -67.5z" />
    <glyph glyph-name="ograve" unicode="&#xf2;" 
d="M266 286q0 -40 -28 -68t-68 -28t-68 28t-28 68q0 39 28 67t68 28q39 0 67.5 -27.5t28.5 -67.5z" />
    <glyph glyph-name="oacute" unicode="&#xf3;" 
d="M266 286q0 -40 -28 -68t-68 -28t-68 28t-28 68q0 39 28 67t68 28q39 0 67.5 -27.5t28.5 -67.5z" />
    <glyph glyph-name="ocircumflex" unicode="&#xf4;" 
d="M266 286q0 -40 -28 -68t-68 -28t-68 28t-28 68q0 39 28 67t68 28q39 0 67.5 -27.5t28.5 -67.5z" />
    <glyph glyph-name="otilde" unicode="&#xf5;" 
d="M266 286q0 -40 -28 -68t-68 -28t-68 28t-28 68q0 39 28 67t68 28q39 0 67.5 -27.5t28.5 -67.5z" />
    <glyph glyph-name="odieresis" unicode="&#xf6;" 
d="M266 286q0 -40 -28 -68t-68 -28t-68 28t-28 68q0 39 28 67t68 28q39 0 67.5 -27.5t28.5 -67.5z" />
    <glyph glyph-name="divide" unicode="&#xf7;" 
d="M266 286q0 -40 -28 -68t-68 -28t-68 28t-28 68q0 39 28 67t68 28q39 0 67.5 -27.5t28.5 -67.5z" />
    <glyph glyph-name="oslash" unicode="&#xf8;" 
d="M266 286q0 -40 -28 -68t-68 -28t-68 28t-28 68q0 39 28 67t68 28q39 0 67.5 -27.5t28.5 -67.5z" />
    <glyph glyph-name="ugrave" unicode="&#xf9;" 
d="M266 286q0 -40 -28 -68t-68 -28t-68 28t-28 68q0 39 28 67t68 28q39 0 67.5 -27.5t28.5 -67.5z" />
    <glyph glyph-name="uacute" unicode="&#xfa;" 
d="M266 286q0 -40 -28 -68t-68 -28t-68 28t-28 68q0 39 28 67t68 28q39 0 67.5 -27.5t28.5 -67.5z" />
    <glyph glyph-name="ucircumflex" unicode="&#xfb;" 
d="M266 286q0 -40 -28 -68t-68 -28t-68 28t-28 68q0 39 28 67t68 28q39 0 67.5 -27.5t28.5 -67.5z" />
    <glyph glyph-name="udieresis" unicode="&#xfc;" 
d="M266 286q0 -40 -28 -68t-68 -28t-68 28t-28 68q0 39 28 67t68 28q39 0 67.5 -27.5t28.5 -67.5z" />
    <glyph glyph-name="yacute" unicode="&#xfd;" 
d="M266 286q0 -40 -28 -68t-68 -28t-68 28t-28 68q0 39 28 67t68 28q39 0 67.5 -27.5t28.5 -67.5z" />
    <glyph glyph-name="thorn" unicode="&#xfe;" 
d="M266 286q0 -40 -28 -68t-68 -28t-68 28t-28 68q0 39 28 67t68 28q39 0 67.5 -27.5t28.5 -67.5z" />
    <glyph glyph-name="ydieresis" unicode="&#xff;" 
d="M266 286q0 -40 -28 -68t-68 -28t-68 28t-28 68q0 39 28 67t68 28q39 0 67.5 -27.5t28.5 -67.5z" />
    <glyph glyph-name="dotlessi" unicode="&#x131;" 
d="M266 286q0 -40 -28 -68t-68 -28t-68 28t-28 68q0 39 28 67t68 28q39 0 67.5 -27.5t28.5 -67.5z" />
    <glyph glyph-name="Lslash" unicode="&#x141;" horiz-adv-x="641" 
d="M656 159q0 -14 -10 -44q-13 -34 -33.5 -49t-40.5 -29q-13 -12 -45 -25q-10 -4 -30 -11l-369 -1q-21 0 -30 17l-4 6q0 2 3 11t3 15l-1 278l-6 -3l-10 -5q-12 -7 -37 -37q-11 -13 -18.5 -16.5t-15.5 -8.5t-13 -8q-3 -1 -8 0h-2l1 27q3 22 10 37t22 32t34 26.5t43 12.5
l-1 301q0 14 9 25.5t21 12.5q14 0 33 2t33 2q12 -1 15.5 -12t3.5 -30l2 -288l26 9l13 8q25 13 28 16q12 9 17.5 21.5t11.5 19.5q3 3 11 9q15 6 23 -11q4 -7 3 -15q0 -14 -2.5 -22t-10.5 -21t-16.5 -22t-25.5 -17l-14 -9q-16 -7 -34 -10t-30 -4l2 -264l-2 -22q0 -14 10 -14
q30 -3 66 -6.5t52 -3.5q68 0 138 32q61 23 115 74q32 29 48 29q12 0 12 -15z" />
    <glyph glyph-name="lslash" unicode="&#x142;" horiz-adv-x="422" 
d="M433 103q0 -10 -7 -30.5t-20.5 -29.5t-26.5 -18q-9 -9 -36 -20q-4 -1 -12 -4l-239 -1q-14 0 -20 11l-2 4q4 10 4 16l-1 161l-3 -1q-9 -6 -22.5 -21.5t-21 -19.5t-10.5 -6q-7 -5 -9 -5q-2 -1 -7 0l1 19q3 18 7.5 28.5t16.5 24.5q6 7 12.5 12t14.5 9l21 6l-1 207
q0 24 20 24q9 1 20.5 2.5t25.5 1.5q7 -1 9 -10q1 -4 1 -18v-198q20 0 41 9l10 6q8 4 16 9q13 8 18.5 21t16.5 19q11 5 17 -7q3 -9 2 -12q0 -16 -10 -32q-6 -9 -13 -16.5t-18 -13.5l-11 -6q-14 -7 -33 -9t-36 -3v-157l-2 -14q0 -10 8 -10q15 0 40 -3t35 -3q24 0 44.5 4
t46 14.5t39.5 19.5t35.5 28.5t30.5 19.5q8 0 8 -8z" />
    <glyph glyph-name="OE" unicode="&#x152;" 
d="M266 286q0 -40 -28 -68t-68 -28t-68 28t-28 68q0 39 28 67t68 28q39 0 67.5 -27.5t28.5 -67.5z" />
    <glyph glyph-name="oe" unicode="&#x153;" 
d="M266 286q0 -40 -28 -68t-68 -28t-68 28t-28 68q0 39 28 67t68 28q39 0 67.5 -27.5t28.5 -67.5z" />
    <glyph glyph-name="Scaron" unicode="&#x160;" 
d="M266 286q0 -40 -28 -68t-68 -28t-68 28t-28 68q0 39 28 67t68 28q39 0 67.5 -27.5t28.5 -67.5z" />
    <glyph glyph-name="scaron" unicode="&#x161;" 
d="M266 286q0 -40 -28 -68t-68 -28t-68 28t-28 68q0 39 28 67t68 28q39 0 67.5 -27.5t28.5 -67.5z" />
    <glyph glyph-name="Ydieresis" unicode="&#x178;" 
d="M266 286q0 -40 -28 -68t-68 -28t-68 28t-28 68q0 39 28 67t68 28q39 0 67.5 -27.5t28.5 -67.5z" />
    <glyph glyph-name="Zcaron" unicode="&#x17d;" horiz-adv-x="634" 
d="M461 887q0 -5 -46 -68t-50 -65q-5 -3 -18 -4t-22 -1h-13q-18 0 -26 5q-3 2 -51 65.5t-48 67.5q0 9 30 9t32 -5q2 -6 36.5 -49t39.5 -43q4 0 38.5 46t39.5 48q8 2 31 2h15q12 0 12 -8zM573 684v-15q0 -47 -3 -68.5t-9 -28.5q-51 -70 -147 -202q-82 -114 -132 -184
q-62 -88 -84 -121l-2 -8q0 -18 18 -18h305q3 0 8.5 -6.5t5.5 -13.5v-6q0 -5 -3 -12l-3 -6h-476q-12 0 -12 20q0 8 3.5 16t4.5 10q68 103 175 253q82 114 165 229q75 105 83 119q2 4 2 6q2 7 2 12q-2 8 -4 8h-309q-11 0 -31.5 8.5t-20.5 18.5l2 2l-2 8q0 6 18 6l75 -2l96 2
l156 2h107q12 0 12 -29z" />
    <glyph glyph-name="zcaron" unicode="&#x17e;" horiz-adv-x="419" 
d="M346 647q0 -5 -46 -68t-50 -65q-5 -3 -18 -4t-22 -1h-13q-18 0 -26 5q-3 2 -51 65.5t-48 67.5q0 9 30 9t32 -5q2 -6 36.5 -49t39.5 -43q4 0 38.5 46t39.5 48q8 2 31 2h15q12 0 12 -8zM376 445q0 -28 -1.5 -47.5t-6.5 -26.5q-64 -87 -104 -142q-75 -103 -123 -174l-2 -6
q0 -12 12 -12h197q10 0 10 -12l2 -20v-5q-2 -4 -5 -6q-2 0 -3 -1q-63 0 -186.5 2t-128.5 2q-6 0 -6 12q0 14 4 18q42 62 113 161q40 56 105 143q48 65 53 74v8q-2 8 -4 8h-44l-125 -2l-28 2q-14 0 -14 12q0 6 -8 10t-8 8l2 2l-2 4q0 6 12 6l48 -2l63 2h170q8 0 8 -18z" />
    <glyph glyph-name="florin" unicode="&#x192;" 
d="M266 286q0 -40 -28 -68t-68 -28t-68 28t-28 68q0 39 28 67t68 28q39 0 67.5 -27.5t28.5 -67.5z" />
    <glyph glyph-name="hungarumlaut" unicode="&#x2ba;" 
d="M266 286q0 -40 -28 -68t-68 -28t-68 28t-28 68q0 39 28 67t68 28q39 0 67.5 -27.5t28.5 -67.5z" />
    <glyph glyph-name="circumflex" unicode="&#x2c6;" 
d="M266 286q0 -40 -28 -68t-68 -28t-68 28t-28 68q0 39 28 67t68 28q39 0 67.5 -27.5t28.5 -67.5z" />
    <glyph glyph-name="caron" unicode="&#x2c7;" 
d="M266 286q0 -40 -28 -68t-68 -28t-68 28t-28 68q0 39 28 67t68 28q39 0 67.5 -27.5t28.5 -67.5z" />
    <glyph glyph-name="breve" unicode="&#x2d8;" 
d="M266 286q0 -40 -28 -68t-68 -28t-68 28t-28 68q0 39 28 67t68 28q39 0 67.5 -27.5t28.5 -67.5z" />
    <glyph glyph-name="dotaccent" unicode="&#x2d9;" 
d="M266 286q0 -40 -28 -68t-68 -28t-68 28t-28 68q0 39 28 67t68 28q39 0 67.5 -27.5t28.5 -67.5z" />
    <glyph glyph-name="ring" unicode="&#x2da;" 
d="M266 286q0 -40 -28 -68t-68 -28t-68 28t-28 68q0 39 28 67t68 28q39 0 67.5 -27.5t28.5 -67.5z" />
    <glyph glyph-name="ogonek" unicode="&#x2db;" 
d="M266 286q0 -40 -28 -68t-68 -28t-68 28t-28 68q0 39 28 67t68 28q39 0 67.5 -27.5t28.5 -67.5z" />
    <glyph glyph-name="tilde" unicode="&#x2dc;" 
d="M266 286q0 -40 -28 -68t-68 -28t-68 28t-28 68q0 39 28 67t68 28q39 0 67.5 -27.5t28.5 -67.5z" />
    <glyph glyph-name="endash" unicode="&#x2013;" 
d="M266 286q0 -40 -28 -68t-68 -28t-68 28t-28 68q0 39 28 67t68 28q39 0 67.5 -27.5t28.5 -67.5z" />
    <glyph glyph-name="emdash" unicode="&#x2014;" 
d="M266 286q0 -40 -28 -68t-68 -28t-68 28t-28 68q0 39 28 67t68 28q39 0 67.5 -27.5t28.5 -67.5z" />
    <glyph glyph-name="quoteleft" unicode="&#x2018;" 
d="M266 286q0 -40 -28 -68t-68 -28t-68 28t-28 68q0 39 28 67t68 28q39 0 67.5 -27.5t28.5 -67.5z" />
    <glyph glyph-name="quoteright" unicode="&#x2019;" 
d="M266 286q0 -40 -28 -68t-68 -28t-68 28t-28 68q0 39 28 67t68 28q39 0 67.5 -27.5t28.5 -67.5z" />
    <glyph glyph-name="quotesinglbase" unicode="&#x201a;" 
d="M266 286q0 -40 -28 -68t-68 -28t-68 28t-28 68q0 39 28 67t68 28q39 0 67.5 -27.5t28.5 -67.5z" />
    <glyph glyph-name="quotedblleft" unicode="&#x201c;" 
d="M266 286q0 -40 -28 -68t-68 -28t-68 28t-28 68q0 39 28 67t68 28q39 0 67.5 -27.5t28.5 -67.5z" />
    <glyph glyph-name="quotedblright" unicode="&#x201d;" 
d="M266 286q0 -40 -28 -68t-68 -28t-68 28t-28 68q0 39 28 67t68 28q39 0 67.5 -27.5t28.5 -67.5z" />
    <glyph glyph-name="quotedblbase" unicode="&#x201e;" 
d="M266 286q0 -40 -28 -68t-68 -28t-68 28t-28 68q0 39 28 67t68 28q39 0 67.5 -27.5t28.5 -67.5z" />
    <glyph glyph-name="dagger" unicode="&#x2020;" 
d="M266 286q0 -40 -28 -68t-68 -28t-68 28t-28 68q0 39 28 67t68 28q39 0 67.5 -27.5t28.5 -67.5z" />
    <glyph glyph-name="daggerdbl" unicode="&#x2021;" 
d="M266 286q0 -40 -28 -68t-68 -28t-68 28t-28 68q0 39 28 67t68 28q39 0 67.5 -27.5t28.5 -67.5z" />
    <glyph glyph-name="bullet" unicode="&#x2022;" 
d="M266 286q0 -40 -28 -68t-68 -28t-68 28t-28 68q0 39 28 67t68 28q39 0 67.5 -27.5t28.5 -67.5z" />
    <glyph glyph-name="ellipsis" unicode="&#x2026;" 
d="M266 286q0 -40 -28 -68t-68 -28t-68 28t-28 68q0 39 28 67t68 28q39 0 67.5 -27.5t28.5 -67.5z" />
    <glyph glyph-name="perthousand" unicode="&#x2030;" 
d="M266 286q0 -40 -28 -68t-68 -28t-68 28t-28 68q0 39 28 67t68 28q39 0 67.5 -27.5t28.5 -67.5z" />
    <glyph glyph-name="guilsinglleft" unicode="&#x2039;" 
d="M266 286q0 -40 -28 -68t-68 -28t-68 28t-28 68q0 39 28 67t68 28q39 0 67.5 -27.5t28.5 -67.5z" />
    <glyph glyph-name="guilsinglright" unicode="&#x203a;" 
d="M266 286q0 -40 -28 -68t-68 -28t-68 28t-28 68q0 39 28 67t68 28q39 0 67.5 -27.5t28.5 -67.5z" />
    <glyph glyph-name="trademark" unicode="&#x2122;" 
d="M266 286q0 -40 -28 -68t-68 -28t-68 28t-28 68q0 39 28 67t68 28q39 0 67.5 -27.5t28.5 -67.5z" />
    <glyph glyph-name="fraction" unicode="&#x2215;" horiz-adv-x="413" 
d="M411 711l-377 -720h-44l383 720h38z" />
    <glyph glyph-name="fi" unicode="&#xf001;" horiz-adv-x="371" 
d="M364 248q0 -44 -1 -67q-5 -116 -5 -126l2 -30q0 -14 -10 -15l-28 -3h-14q-8 1 -12 9.5t-4 18.5v303q0 28 1.5 63.5t2.5 57.5q0 12 12 12l22 -2h16q10 0 10 -4q0 -43 2 -83q6 -118 6 -134zM270 435q0 -2 -1 -5q0 -1 -1 -3q-41 6 -80.5 11t-54.5 5h-6q-16 0 -16 -14
q-2 -14 -3 -46t-1 -63q0 -9 0.5 -17.5t11.5 -10.5q23 0 50 0.5t45 5.5l14 2q8 0 8 -8v-12l-2 -22q0 -2 -2 -4l-2 -2q-3 2 -5 3q-6 3 -13 3q-12 0 -37 3t-34 3h-16q-15 -3 -16 -4q-2 -1 -2 -10q0 -18 -2 -72t-2 -61l2 -80q0 -34 -12 -36l-22 -1l-30 1q-16 0 -16 16l2 10
l-2 74v282l2 64q3 14 7 16q9 6 25 6q53 0 111.5 -0.5t87.5 -5.5q5 0 8.5 -9.5t3.5 -18.5z" />
    <glyph glyph-name="fl" unicode="&#xf002;" horiz-adv-x="676" 
d="M667 103q0 -10 -7 -30.5t-20.5 -29.5t-26.5 -18q-9 -9 -36 -20q-4 -1 -12 -4l-239 -1q-14 0 -20 11l-2 4q4 10 4 16l-2 414q0 24 20 24q9 1 20.5 2.5t25.5 1.5q7 -1 9 -10q1 -4 1 -18v-390l-2 -14q0 -10 8 -10q15 0 40 -3t35 -3q24 0 44.5 4t46 14.5t39.5 19.5t35.5 28.5
t30.5 19.5q8 0 8 -8zM270 435q0 -2 -1 -5q0 -1 -1 -3q-41 6 -80.5 11t-54.5 5h-6q-16 0 -16 -14q-2 -14 -3 -46t-1 -63q0 -9 0.5 -17.5t11.5 -10.5q23 0 50 0.5t45 5.5l14 2q8 0 8 -8v-12l-2 -22q0 -2 -2 -4l-2 -2q-3 2 -5 3q-6 3 -13 3q-12 0 -37 3t-34 3h-16
q-15 -3 -16 -4q-2 -1 -2 -10q0 -18 -2 -72t-2 -61l2 -80q0 -34 -12 -36l-22 -1l-30 1q-16 0 -16 16l2 10l-2 74v282l2 64q3 14 7 16q9 6 25 6q53 0 111.5 -0.5t87.5 -5.5q5 0 8.5 -9.5t3.5 -18.5z" />
    </font>
</defs>
</svg>
